<?xml version="1.0" encoding="utf-8"?>
<!-- Generator: Adobe Illustrator 24.0.3, SVG Export Plug-In . SVG Version: 6.00 Build 0)  -->
<svg version="1.1" xmlns="http://www.w3.org/2000/svg" xmlns:xlink="http://www.w3.org/1999/xlink" x="0px" y="0px"
	 viewBox="0 0 512 512" style="enable-background:new 0 0 512 512;" xml:space="preserve">
<style type="text/css">
	.st0{display:none;opacity:0.16;}
	.st1{display:inline;}
</style>
<g id="Layer_1" class="st0">
	<g class="st1">
		<g>
			<g>
				<path d="M474.7,144.4c-0.1-0.9-0.1-1.9-0.5-2.8c-0.1-0.2-0.3-0.4-0.4-0.6c-0.2-0.5-0.5-0.9-0.9-1.4c-0.7-0.9-1.4-1.7-2.3-2.4
					c-0.2-0.2-0.3-0.5-0.6-0.6L268,15.9c-3-1.8-6.6-1.8-9.5,0L56.3,136.6c-0.2,0.2-0.3,0.4-0.6,0.6c-0.9,0.7-1.7,1.5-2.4,2.5
					c-0.3,0.4-0.5,0.8-0.8,1.2c-0.1,0.3-0.3,0.4-0.5,0.7c-0.4,1.1-0.6,2.3-0.6,3.4c0,0.1-0.1,0.2-0.1,0.4v0.2c0,0,0,0,0,0v221
					c0,0,0,0.1,0,0.1v0.1c0,0.2,0.1,0.4,0.2,0.6c0.1,1.4,0.3,2.8,0.9,4.1c0,0.1,0.1,0.1,0.2,0.2c0.2,0.5,0.7,0.8,1,1.2
					c0.7,0.9,1.4,1.8,2.3,2.5c0.1,0.1,0.1,0.2,0.2,0.2l202.1,120.7c1.5,0.9,3.1,1.3,4.8,1.3s3.3-0.4,4.8-1.3l202.1-120.7
					c0.1-0.1,0.1-0.2,0.2-0.2c0.9-0.6,1.5-1.4,2.2-2.3c0.4-0.5,0.9-0.8,1.2-1.4c0-0.1,0.1-0.1,0.1-0.2c0.5-1,0.6-2.2,0.8-3.3
					c0.1-0.5,0.3-0.9,0.3-1.4V145.3C474.9,145,474.7,144.7,474.7,144.4z M443.2,143.7l-70.6,29.5L294.9,55.2L443.2,143.7z
					 M263.2,42.4l87.6,133.2H175.6L263.2,42.4z M231.4,55.2l-77.6,118.1l-70.6-29.5L231.4,55.2z M70.7,160.2l72.9,30.5L70.7,327.8
					V160.2z M157.3,206.4L246,375L76.6,358.1L157.3,206.4z M253.6,470.1l-149-89l149,14.7V470.1z M263.2,365.9l-89.6-170.3h179.2
					L263.2,365.9z M272.8,470.1V396l148.9-14.8L272.8,470.1z M280.3,375.2l88.8-168.7l80.6,151.7L280.3,375.2z M455.7,327.9
					l-72.9-137.2l72.9-30.5V327.9z"/>
			</g>
		</g>
	</g>
</g>
<g id="Layer_2">
	<g>
		<g>
			<g>
				<path d="M84,322l0.5-0.8c-1.3,2.6-2.9,5.3-4.5,7.8c4.7-5,9.8-11.1,8.6-17.5c2.1,0.5,6-4.7,5.6-5c0.3-1.4,0.6-2.7,1.1-4
					c-0.3,0.9-0.6,1.8-0.9,2.7c0.3-0.9,0.6-1.8,0.9-2.7c2.6-8.4,7.7-16.2,13.2-24.3c3-4.5,10.5-16.9,13.8-21.4
					c0.5-0.7,0.9-1.3,1.4-2c-0.8,1.1-0.8,1.1-1.7,2.1c1.2-3.2,2.2-6.1,3.4-8.8c-0.5,0.3-0.8,0.2-1.8,1.1l0.9-1.2
					c-0.1-1.6,1.5-4.3,2-5.8c0.2,0.5,0.9-0.5,1.5-1.3l-0.5,0.2c2.2-3.3,4.1-7.4,6-10.3c0.3-0.4,0.6-0.6,0.8-0.8l1.4-3.1
					c0.4,0.5,1.9-2.1,1.4-0.5c0.7-2.5,2.3-4.5,3-6.9c4.4-7.4,8.7-15.3,12.6-23.4l-0.3,0.1c1.3-2.8,1.7-5.8,4.1-8.8
					c0.7-2.7,2.4-6.2,1.9-7.8c1.5-2.7,1.7-4.1,3-6.9c-1,0.3,1-2.9-0.3-1.9c-1.8,1.2-1.3,1.7-2.8,2.8l0.2,0.1
					c-5.2,6.2-9.9,12.7-14.5,19.5c-2.4,4.9-5.9,9.7-8.7,14.6c-3,5.3-6,11.1-8.3,15.9c-0.5,1.2-1.4,1.7-2.2,2.4
					c-2.2,4.3-5.5,9.4-7.9,14.3c0.1-0.1,0.1-0.2,0.2-0.2c-1.4,2.5-3,4.1-4.3,6.6c0.2,0.1,0,0.5-0.1,0.7c-1,0-6.7,15.2-7.6,15.8
					c-0.1,0.3-0.2,0.6-0.4,0.8c-3.2,5-7.7,9.5-10,14c-0.2,1.2-0.5,2.4-0.5,3.4c-0.8,0.6-0.2,1.1-0.8,2c-2.8,1.6-3,3.3-1.8,2.4
					c-0.9,2.1-2.1,4-3,5.8c-0.3,0.9-0.6,1.8-1,2.7c-0.3,0.8-0.7,1-1.2,1.2c-0.8,1.9-0.8,1.2-2,3c-0.8,0.2-1.7,5.2-2.1,5.6l0.1-0.4
					c-1.3,2.1-3,3.1-4.2,5.2c-3.5,5.8-6.5,12.5-9.6,17.9c0.5,0.3,0.5-1.3,1.3-1c-1.8,3.2-4.1,6.2-5.9,9.4c-0.5,0.5-1.1,1.1-1.4,1.3
					c-0.7,1,0,0.8-0.5,1.5l-0.6-0.1c-0.2,1.3-1.4,1.4-1.7,2.6c0.2,0.2,0,0.6-0.2,0.9c-0.5-0.2-0.6,1.2-1,0.9l0,0
					c-0.1,0.2-0.2,0.4-0.4,0.6c0,0.5-0.6,5.3-0.6,5.9l-0.2,0.2c-0.3,0.6,0,1.1,0.3,0.8l-0.4,0.7l0-0.1l-0.4,0.7
					c-0.1,0.1-0.4,0.1-0.6-0.2c0,0.5-0.2,1-0.5,1.4c0.9-1,2.1-2.3,3.2-3.2c-0.1,0.6-0.8,1.4-1,2c-0.7,0.5-1.6,1.7-2.4,2.6
					c-0.1,0.2,0.4,0.7-0.1,1.1c-0.5,0.1-0.3,0.6-0.8,0.9c0-0.6,0.4-1,0.6-1.5c-0.5-0.2-0.9,1.1-1.3,1.4c0.1,0.3-0.6,1.2-0.7,1.8
					c-0.3-0.5-0.5,0.4-1,0.6c-0.3,0.4-0.2,0.7,0,0.7c0.4,0.4,1.1-1.5,1.4-0.7c-0.3,0-0.6,0.9-0.8,1.3c0.3,0.1,0.4-0.2,0.5,0.2
					c-0.3,0.5-0.2,1.1-0.6,1.3c0-0.1,0.1-0.3,0.2-0.4c-0.3,0.6-0.1-4.3-0.4-3.4c0.4-0.1-0.1,4.4,0.1,4c0.3-0.3,0.4,0.5,0.7,0.2
					l-0.1-0.6c0.4-0.5,1-0.5,1.1-0.2c-0.5,0.9-0.6-3.5-0.7-2.6l0.3-0.3c0,0.4-0.3,1.4-0.7,1.6c0.3,0.1,0.1,0.6,0.1,1l-0.1,0.1
					c0,0.5-0.4,1,0.1,0.9c1.1-2.3,2.1,2.8,3.3,0.7c-1.1,0.6-0.5-0.6-0.1-1.6c0.3,0,0.8-0.3,1.3-0.9c0.2-0.6,0-0.5-0.1-0.6
					c0.3-0.3,0.7-0.8,1-0.6c-0.2-0.7,0.6-0.6,0.8-1.2c0.1-0.6-0.2,0-0.2-0.5c0.4-0.7,1-1.7,1.3-2.3c0.4-0.1,1.3-0.5,1.5,0.2
					c-0.6,1.1-0.5-0.8-1,0.4c0.9-0.2-0.3,1.1,0.1,1.6c0.5-0.2,0.9-1,1.1-1.6l-0.2,0.1c0.2-0.6,0.6-1.8,1.2-2.2
					c0.2,0.3,0.5,0.1,0.3,0.5l0.4-0.7c0-0.1-0.1-0.3-0.2-0.1c0-0.4,0.3-0.8,0.5-1c0.3,0,1-4.6,1.1-4.4c0.3-0.5,0.7-0.5,0.7-1.2
					c-0.2-0.2-1.8,5.6-1.5,4.9c0.5-0.3,1.8-6.8,2.5-6.9c0.2-0.4,0.4-0.9,0.1-1c0.5-0.6,0.4,0.5,0.9,0.1c0,0-0.1,0-0.1-0.2l0.6-0.3
					c0.1-1.3,1.4-2.6,1.5-3.9c0.1,0.5,0.4,1.1,0.3,1.9l-0.2,0.1c0,0.1-0.2,0.8,0.1,0.9c0.5-0.6,0.8-1.2,0.9-2
					c0.1-0.1,0.3-0.2,0.4-0.3c0,0-0.1,0-0.1,0c0.3-0.2,0.3-0.1,0.3,0c0,0,0,0,0,0.1c1,0,0.9-2.9,1.9-3.9c0.1-0.4-0.1-0.1,0-0.6
					c0.9-1.1,1.6-1.9,2.5-3.1c-0.1-0.6-0.2-0.7-0.8-0.3l0.6-0.9c0.4,1.3,1.8-1.4,2.1,0c0.3-0.2,0.7-0.8,0.8-1.4
					c-0.2-0.2-0.5-0.4-0.1-1.1c0.8-0.8,0.6-0.6,1.3-1.3c0.4,0,0.3,0.3,0.6,0.4c0.3-1.4,1.2-0.8,1.7-2c0.3-0.8,1-2.2,0.5-2.5
					C83.3,321.5,83.7,321.7,84,322z"/>
			</g>
		</g>
	</g>
	<g>
		<g>
			<g>
				<path d="M183.5,155.3l0.5-0.7c-1.6,2.3-3.4,4.5-5.3,6.7c5.1-3.9,10.8-9,10.3-15.2c2,0.8,6.3-3.6,6-4c0.4-1.2,0.9-2.5,1.4-3.7
					c-0.4,0.8-0.7,1.6-1.1,2.5c0.3-0.8,0.7-1.7,1.1-2.5c3.3-7.6,8.8-14.4,14.6-21.6c3.2-4,11.1-15.2,14.5-19.2
					c0.5-0.6,0.9-1.2,1.4-1.8c-0.8,1-0.8,1-1.7,1.9c1.2-3,2.3-5.7,3.5-8.2c-0.5,0.2-0.8,0.2-1.8,0.9l0.9-1.1c0-1.6,1.6-4,2-5.4
					c0.2,0.5,0.9-0.4,1.5-1.2l-0.5,0.2c2.1-3,4.1-6.8,5.9-9.6c0.2-0.4,0.6-0.6,0.8-0.7l1.4-2.9c0.4,0.5,1.8-1.9,1.4-0.5
					c0.6-2.4,2.3-4.2,2.8-6.5c4.1-6.9,8.2-14.5,11.5-22.1l-0.3,0.1c1.1-2.7,1.4-5.5,3.5-8.4c0.6-2.6,2-5.9,1.4-7.4
					c1.3-2.6,1.3-3.9,2.5-6.6c-0.9,0.3,0.7-2.8-0.4-1.8c-1.7,1.2-1.1,1.7-2.5,2.7l0.2,0.1c-4.5,6-8.8,12.2-12.9,18.5
					c-2.1,4.6-5.3,9.1-7.9,13.6c-2.7,4.9-5.6,10.4-7.7,14.8c-0.5,1.1-1.4,1.5-2.1,2.2c-2.1,3.9-5.4,8.6-7.7,13
					c0.1-0.1,0.1-0.1,0.2-0.2c-1.4,2.3-3,3.6-4.3,5.9c0.2,0.1-0.1,0.4-0.1,0.7c-0.9-0.1-6.9,13.8-7.8,14.3c-0.1,0.2-0.2,0.5-0.4,0.8
					c-3.4,4.4-7.9,8.2-10.4,12.2c-0.2,1.1-0.6,2.2-0.7,3.2c-0.8,0.5-0.3,1-0.9,1.8c-2.8,1.2-3.1,2.8-1.9,2c-1,1.9-2.3,3.5-3.3,5.1
					c-0.4,0.8-0.8,1.6-1.2,2.4c-0.3,0.7-0.7,0.9-1.3,1c-0.9,1.7-0.9,1-2.2,2.5c-0.8,0.1-2.1,4.6-2.6,5l0.1-0.3
					c-1.4,1.8-3.2,2.4-4.6,4.2c-4,4.9-7.6,10.7-11.2,15.2c0.5,0.4,0.6-1.1,1.3-0.7c-2.1,2.7-4.8,5-6.9,7.8c-0.5,0.4-1.2,0.8-1.5,0.9
					c-0.8,0.7-0.1,0.7-0.7,1.3l-0.5-0.2c-0.3,1.2-1.5,1-2,2c0.1,0.2-0.1,0.5-0.3,0.8c-0.5-0.3-0.7,1-1.1,0.6l0,0
					c-0.1,0.2-0.2,0.3-0.5,0.5c-0.1,0.5-1.3,4.9-1.4,5.4l-0.2,0.1c-0.4,0.5-0.2,1,0.1,0.8l-0.5,0.6l0-0.1l-0.5,0.6
					c-0.1,0.1-0.4,0-0.5-0.3c-0.1,0.5-0.3,0.9-0.7,1.2c1-0.8,2.4-1.7,3.6-2.3c-0.2,0.5-1,1.1-1.3,1.6c-0.7,0.3-1.8,1.2-2.7,1.9
					c-0.1,0.2,0.3,0.7-0.2,1c-0.5-0.1-0.4,0.5-0.9,0.7c0.1-0.6,0.5-0.9,0.8-1.3c-0.5-0.3-1.1,0.8-1.4,1c0,0.3-0.7,1-1,1.6
					c-0.2-0.5-0.6,0.2-1,0.3c-0.3,0.3-0.3,0.7-0.1,0.6c0.4,0.5,1.3-1.2,1.4-0.3c-0.3,0-0.7,0.7-1,1.1c0.2,0.2,0.4-0.1,0.4,0.3
					c-0.4,0.4-0.4,1-0.8,1.1c0-0.1,0.2-0.3,0.3-0.4c-0.4,0.5,0.5-4.1,0.2-3.3c0.4,0-0.8,4.1-0.5,3.8c0.4-0.2,0.3,0.6,0.6,0.3l0-0.6
					c0.4-0.4,1-0.2,1.1,0c-0.6,0.7-0.1-3.4-0.3-2.6l0.3-0.2c0,0.4-0.5,1.2-0.9,1.3c0.2,0.2,0,0.6-0.1,1l-0.1,0.1
					c-0.1,0.4-0.5,0.8,0,0.8c1.4-1.9,1.5,3.1,3,1.4c-1.1,0.3-0.4-0.7,0.2-1.5c0.2,0.1,0.8-0.1,1.3-0.6c0.3-0.5,0-0.4,0-0.6
					c0.3-0.2,0.8-0.6,1.1-0.3c0-0.6,0.7-0.5,0.9-1c0.2-0.5-0.2-0.1-0.1-0.5c0.5-0.6,1.2-1.4,1.6-1.8c0.4,0,1.3-0.2,1.4,0.5
					c-0.8,0.9-0.4-0.9-1,0.2c0.9,0-0.5,1-0.2,1.5c0.5-0.1,1-0.7,1.3-1.3l-0.2,0c0.3-0.5,0.8-1.5,1.5-1.8c0.1,0.3,0.4,0.2,0.2,0.6
					l0.5-0.6c0-0.1,0-0.3-0.2-0.1c0.1-0.4,0.4-0.7,0.7-0.8c0.3,0.1,1.6-4.1,1.6-3.9c0.3-0.5,0.8-0.3,0.9-0.9c-0.1-0.2-2.5,5-2.1,4.3
					c0.5-0.2,2.7-6,3.4-6c0.2-0.4,0.5-0.8,0.2-0.9c0.5-0.5,0.3,0.5,0.8,0.2c0,0-0.1-0.1,0-0.2l0.6-0.2c0.3-1.2,1.7-2.1,2-3.4
					c0.1,0.5,0.3,1.1,0,1.9l-0.2,0c0,0.1-0.3,0.7,0,0.8c0.6-0.5,0.9-1,1.1-1.7c0.1-0.1,0.3-0.2,0.4-0.2c0,0-0.1,0-0.1-0.1
					c0.3-0.1,0.3-0.1,0.3,0.1c0,0,0,0,0,0.1c0.9,0.1,1.2-2.6,2.3-3.4c0.1-0.4-0.1-0.1,0.1-0.6c1.1-0.9,1.8-1.5,2.8-2.5
					c0-0.6-0.1-0.7-0.7-0.5l0.7-0.8c0.2,1.3,1.9-1,2.1,0.4c0.4-0.1,0.8-0.6,1-1.2c-0.2-0.2-0.4-0.5,0-1.1c0.9-0.6,0.6-0.5,1.4-1
					c0.4,0,0.3,0.3,0.5,0.5c0.4-1.3,1.2-0.5,1.9-1.6c0.4-0.7,1.2-2,0.8-2.3C182.8,154.7,183.1,155,183.5,155.3z"/>
			</g>
		</g>
	</g>
	<g>
		<g>
			<g>
				<path d="M274.1,63.7l0.4,0.8c-1.4-2.5-2.7-5.2-4-7.9c1.5,6.6,3.7,14,9.6,16.5c-1.6,1.5,0.6,7.5,1.1,7.3c1,1,1.9,2,2.8,3
					c-0.6-0.7-1.2-1.5-1.8-2.1c0.6,0.7,1.2,1.4,1.8,2.1c5.6,6.6,9.7,15,14.8,23.4c0.7,1.2,1.8,2.8,3,4.6c1.3,1.9,2.8,3.9,4.2,5.9
					c3,4,6,8,7.6,10.3c0.5,0.6,0.9,1.3,1.4,1.9c-0.7-1.1-0.7-1.1-1.5-2.2c2.6,2.1,5,4,7.2,5.9c-0.1-0.6,0-0.8-0.4-2l0.8,1.2
					c1.6,0.4,3.6,2.7,4.8,3.6c-0.6,0.1,0.1,1,0.8,1.8l0-0.5c2.4,3,5.6,6,7.8,8.6c0.3,0.4,0.4,0.7,0.4,1l2.4,2.2
					c-0.6,0.2,1.3,2.4,0,1.5c2.1,1.4,3.3,3.6,5.3,4.9c5.2,6.4,10.5,13.2,15.4,20.1l0.1-0.3c0.9,1.2,1.9,2.2,2.8,3.4
					c0.9,1.2,1.7,2.6,2.3,4.3c1,1,1.8,2.4,2.6,3.6c0.8,1.2,1.6,2.2,2.4,2.5c0.6,1.4,1,2.4,1.6,3.4c0.5,1,1,2,1.6,3.4
					c0.2-0.5,0.6,0.2,0.9,0.8c0.4,0.6,0.6,1.1,0.7,0.3c0.3-2.2-0.4-2.1-0.2-4l-0.2,0.1c-1.2-8.2-3.9-16.3-7.8-23.7
					c-0.8-1.2-1.6-2.3-2.4-3.5c-0.8-1.2-1.6-2.4-2.3-3.7c-1.6-2.4-3.2-4.9-4.9-7.1c-3.8-4.8-8.3-9.6-12-13.2
					c-0.9-0.8-1.1-1.8-1.6-2.8c-3.3-3.4-7.1-8-10.9-11.7c0.1,0.1,0.1,0.2,0.2,0.2c-1.9-2-2.8-4-4.7-6c-0.1,0.1-0.4-0.2-0.6-0.3
					c0.2-0.5-2.8-3.1-5.8-5.9c-1.5-1.4-3-2.8-4.1-3.9c-1.1-1.1-1.9-2-1.9-2.2c-0.2-0.2-0.4-0.4-0.6-0.6c-0.8-1.2-1.6-2.4-2.3-3.6
					c-0.7-1.3-1.3-2.5-2-3.8c-1.3-2.5-2.5-4.8-3.9-6.8c-0.9-0.6-1.8-1.4-2.7-1.9c-0.2-0.9-0.8-0.7-1.3-1.6c0.1-3.1-1.3-4.1-1.2-2.6
					c-1.3-1.7-2.3-3.7-3.3-5.3c-0.6-0.7-1.1-1.4-1.7-2.1c-0.5-0.6-0.5-1.1-0.3-1.6c-1.2-1.6-0.5-1.3-1.4-3.2
					c0.3-0.7-3.4-4.1-3.5-4.7l0.2,0.3c-1.1-2.2-0.8-4.1-1.9-6.2c-2.8-5.9-6.6-12-9.4-17.4c-0.6,0.2,0.8,1.1,0.1,1.6
					c-1.6-3.2-2.7-6.7-4.4-9.9c-0.2-0.7-0.3-1.5-0.3-1.9c-0.4-1.1-0.6-0.5-0.9-1.2l0.4-0.4c-1-0.9-0.3-1.9-1.1-2.8
					c-0.2,0.1-0.5-0.3-0.6-0.7c0.5-0.3-0.7-1.1-0.1-1.3l0,0c-0.1-0.2-0.2-0.4-0.3-0.7c-0.4-0.3-4-3.4-4.4-3.7l0-0.2
					c-0.3-0.6-0.9-0.6-0.8-0.2l-0.4-0.7l0.1,0.1l-0.4-0.7c0-0.2,0.1-0.4,0.5-0.4c-0.4-0.3-0.8-0.7-0.9-1.2c0.3,1.3,0.6,2.9,0.7,4.4
					c-0.4-0.4-0.7-1.4-1-1.9c0-0.8-0.4-2.3-0.7-3.4c-0.2-0.2-0.8,0-0.8-0.7c0.3-0.5-0.3-0.6-0.3-1.1c0.5,0.4,0.6,0.9,0.9,1.4
					c0.4-0.3-0.3-1.3-0.4-1.8c0,0-0.1,0-0.1-0.1l0,0l0,0c2.8-1.5-3.8,2.1-3.1,1.7l0,0l0,0l0,0l0,0l0,0l0.1,0c0,0,0.1,0,0.1-0.1
					c0.2-0.1,0.5-0.2,0.8-0.3c0.2,0,0.3-0.1,0.4-0.1l0.4-0.1c0.1,0,0.2,0,0.3,0l0.1,0c0,0,0,0,0,0c0,0,0.1,0,0,0c0,0-0.4,0-0.8-0.1
					c-0.4-0.1-0.8-0.2-1.1-0.3c-0.2-0.1-0.3-0.1-0.1,0c-0.2-0.1,0.9,0.4,1.5,0.4c0.1,0,0.3,0,0.3,0c0,0,0.1,0,0.1,0c0,0,0,0,0,0
					c0,0-0.2,0-0.8-0.1c-0.1,0-0.3-0.1-0.5-0.1c-0.2,0-0.4-0.1-0.5-0.2c-0.3-0.1-0.7-0.3-0.9-0.5c0,0,0.7,0.4,0,0
					c-0.5-0.3-0.8-0.7-0.7-0.7c0,0,0,0,0,0c0,0.1,0,0.2,0,0.2c0,0.1-0.1,0.3-0.2,0.5c0,0,0.1-0.1,0.1-0.2c0-0.1,0.1-0.2,0.1-0.2
					c0,0,0-0.1,0.1-0.2c0-0.1,0-0.1,0-0.1c0,0.1,0-0.1,0,0c0,0,0,0,0,0.1c0,0,0.1,0.1,0.1,0.2c0,0.1,0.1,0.1,0.2,0.2
					c0.1,0.1,0.2,0.1,0.3,0.2c0.4,0.3,0.9,0.5,1.4,0.7c0.5,0.2,0.9,0.2,1.2,0.3c0.1,0,0.2,0,0.2,0c0,0,0.1,0,0.1,0
					c-0.1,0-0.1,0-0.1,0c0,0,0.1,0-0.1,0c0,0-0.2,0-0.3,0c-0.1,0-0.3-0.1-0.5-0.1c-0.1,0-0.2-0.1-0.3-0.1c-0.1,0-0.3-0.1-0.4-0.1
					c-0.3-0.1-0.5-0.2-0.8-0.4c-0.3-0.2-0.5-0.2-0.6-0.5c-0.1-0.1-0.1-0.1-0.2-0.2c0,0,0-0.1-0.1-0.1l0,0c0,0,0-0.1,0-0.1
					c0,0,0,0,0,0.1l0,0c0,0,0,0.1,0,0.1c0,0.1,0,0.1-0.1,0.2c0,0-0.1,0.3-0.2,0.4c-0.1,0.1-0.1,0.2-0.2,0.3l0,0l0,0l0,0
					c0.4-0.5-3.7,4.5-2,2.4l0,0l0,0l0,0l0,0c0,0,0,0,0,0c0,0,0,0,0,0c0,0,0,0,0,0l0,0l0,0l0,0l0,0l0,0l0,0c0.9-1-1.9,2.3,1.9-2.3
					c0.3-0.3,0.2-0.2,0.1-0.1l-0.1,0.1l0,0l0,0l-1.6,2l0,0l0,0l0,0l0,0c0,0,0,0,0,0c0,0,0,0,0,0l0,0l0,0l0,0l1.6-1.9l0,0l0,0
					c0,0,0.1-0.1,0.2-0.2c0.2-0.4,0.3-0.6,0.3-0.7c0-0.2,0.1,0.3,0.2,0.3c0.1,0,0.1,0.1,0.1,0.1c0,0,0-0.1-0.1-0.1
					c-0.1-0.1-0.2-0.2-0.2-0.2c0,0,0.1,0.1,0.2,0.2c0.2,0.3,1,0.7,1.9,1c0.3,0.1,0.8,0.2,0.9,0.2c0.1,0,0.2,0,0.3,0c0,0,0.1,0,0.1,0
					c0.1,0,0.1,0,0.1,0c0,0,0,0,0,0c0.1,0,0,0-0.1,0c0.1,0,0.2,0-0.3,0c-0.4-0.1-1.2-0.3-1.6-0.5c0,0-0.3-0.1-0.6-0.3
					c-0.2-0.1-0.3-0.2-0.5-0.4c-0.1-0.1-0.1-0.1-0.2-0.2c0-0.1-0.1-0.2-0.1-0.2c0,0,0-0.1,0-0.1c0,0,0,0.2-0.2,0.6
					c-0.2,0.3-0.3,0.4-0.1,0.2c0.1-0.1,0.2-0.3,0.2-0.4c0-0.1,0.1-0.1,0.1-0.2c0,0,0-0.1,0-0.1c0,0,0,0,0,0c0,0,0,0,0,0
					c0-0.1,0,0,0,0l0,0c0,0,0,0,0-0.1c0,0,0,0,0,0c0,0,0,0,0,0.1c0,0.2-0.3,0.7-0.4,0.7c0,0,0.1-0.1,0.1-0.1c0-0.1,0.1-0.1,0.1-0.2
					c0.1-0.2,0.1-0.2,0.1-0.3c0,0,0-0.1,0-0.1c0,0,0,0,0,0c0,0,0-0.1,0,0c0-0.1,0,0,0,0c0,0,0,0,0,0c0,0,0,0.1,0,0.1
					c0,0,0-0.1,0-0.1c0,0,0,0,0-0.1c0,0.1,0.1,0.3,0.6,0.6c0.1,0,0.1,0.1,0.2,0.1c0,0,0,0,0,0c0,0,0,0,0,0l0,0.2
					c-0.2,0-0.7,0.2-0.8,0.8c0.1,0.5,0.3,0.3,0.4,0.3c-0.1,0.3-0.1,0.7-0.4,0.8c0.5,0.2,0.1,0.8,0.5,1.3c0.4,0.4,0.1-0.1,0.5,0.1
					c0.3,0.7,0.8,1.7,1.1,2.3c-0.2,0.4-0.3,1.3-1,1.1c-0.5-1.1,1,0,0.3-1.1c-0.4,0.8-0.7-0.9-1.3-0.8c-0.1,0.5,0.3,1.2,0.7,1.8
					l0-0.2c0.4,0.5,1.1,1.5,1.1,2.2c-0.3,0-0.3,0.3-0.6,0l0.4,0.7c0.1,0.1,0.3,0.1,0.2-0.1c0.4,0.2,0.5,0.6,0.5,1
					c-0.2,0.2,3.2,3.3,2.9,3.2c0.3,0.5,0,0.8,0.5,1.2c0.2-0.1-3.6-4.5-3.1-3.9c0,0.6,4.5,5.2,4.2,5.8c0.2,0.4,0.5,0.8,0.7,0.6
					c0.2,0.7-0.6,0.1-0.6,0.7c0,0,0.1-0.1,0.2,0l-0.1,0.6c0.9,0.8,1.3,2.6,2.4,3.3c-0.4-0.2-1.1-0.2-1.7-0.8l0.1-0.2
					c-0.1-0.1-0.5-0.6-0.8-0.4c0.2,0.7,0.5,1.3,1.2,1.8c0,0.2,0,0.3,0,0.5c0,0,0.1,0,0.1-0.1c0,0.3-0.1,0.3-0.2,0.3c0,0-0.1,0-0.1,0
					c-0.5,0.8,1.9,2.3,2.2,3.7c0.3,0.3,0.1,0,0.5,0.3c0.4,1.4,0.6,2.3,1.1,3.7c0.5,0.2,0.7,0.2,0.7-0.5l0.4,1
					c-1.3-0.4,0.2,2.2-1.2,1.7c0,0.4,0.2,1,0.7,1.4c0.2-0.1,0.6-0.2,1,0.5c0.2,1.1,0.2,0.8,0.4,1.7c-0.2,0.3-0.4,0.1-0.6,0.3
					c1,1,0,1.4,0.7,2.5c0.5,0.7,1.3,2,1.8,1.8C274.9,63.4,274.5,63.6,274.1,63.7z"/>
			</g>
		</g>
	</g>
	<g>
		<g>
			<g>
				<path d="M199.4,188.5l1,0c-3.1,0.2-6.3,0.1-9.5,0c7,1.6,15.2,3,20.5-1.2c0.7,2.1,7.4,2.9,7.5,2.4c1.4-0.4,2.8-0.8,4.2-1.1
					c-1,0.2-2,0.4-2.9,0.6c1-0.2,1.9-0.4,2.9-0.6c9-1.9,18.9-1.4,29-0.8c5.6,0.3,21,0.6,26.8,1.2c0.8,0.1,1.7,0.1,2.5,0.2
					c-1.4-0.2-1.4-0.2-2.8-0.4c3.5-0.6,6.7-1.2,9.8-1.5c-0.5-0.3-0.6-0.6-1.9-1l1.6,0.2c1.4-0.9,4.8-0.9,6.3-1.2
					c-0.3,0.5,0.9,0.6,2,0.6l-0.4-0.3c4.1,0.2,8.9-0.2,12.6-0.1c0.5,0,0.9,0.2,1.1,0.3l3.5-0.3c-0.3,0.6,2.9,0.6,1.2,0.9
					c2.6-0.7,5.3-0.2,7.8-1c9,0,18.6-0.4,27.9-1.3l-0.2-0.2c3.3-0.3,6.2-1.6,10.1-1c2.8-0.7,6.9-0.8,8.2-1.9
					c3.3,0.3,4.8-0.1,8.2,0.5c-0.3-0.4,0.5-0.4,1.3-0.3c0.8,0.1,1.3,0.1,0.7-0.4c-1-0.8-1.6-1-2.1-1.2c-0.6-0.2-1.1-0.3-2-0.9l0,0.2
					c-4.4-1.5-8.9-2.3-13.3-2.8c-4.4-0.5-8.6-0.7-12.9-0.9c-5.7,0.4-11.9-0.1-17.8,0c-6.4,0.2-13.3,0.5-18.8,1.1
					c-1.3,0.2-2.2-0.4-3.4-0.7c-5,0.3-11.4,0.1-17.1,0.4c0.1,0,0.2,0,0.3,0c-3,0.1-5.3-0.5-8.2-0.4c0,0.2-0.4,0.2-0.7,0.3
					c-0.5-0.9-17.3,1.9-18.4,1.5c-0.3,0-0.6,0.1-0.9,0.1c-6.2-0.3-12.7-1.8-18-1.6c-1.2,0.4-2.4,0.8-3.4,1.3c-1-0.3-1.1,0.4-2.3,0.3
					c-2.9-1.6-4.6-0.9-3.1-0.3c-2.4,0.3-4.8,0.2-6.9,0.3c-1,0.2-1.9,0.3-2.9,0.5c-0.8,0.2-1.3-0.1-1.7-0.5c-2.1,0.3-1.5-0.1-3.8-0.2
					c-0.6-0.6-5.6,1.1-6.3,0.9l0.4-0.1c-2.6,0-4.4-1.1-6.9-1.1c-7.1-0.2-14.8,0.5-21.3,0.6c0,0.6,1.4-0.2,1.5,0.6
					c-3.9,0-7.8-0.6-11.7-0.5c-0.7-0.1-1.6-0.4-1.9-0.6c-1.3-0.2-0.7,0.3-1.6,0.3l-0.1-0.6c-1.3,0.5-2-0.5-3.2-0.2
					c-0.1,0.2-0.5,0.3-1,0.3c-0.1-0.6-1.4,0.1-1.3-0.4l0,0c-0.3,0-0.5,0.1-0.8,0c-0.5,0.2-5.2,2.1-5.7,2.4l-0.2-0.1
					c-0.7,0.1-1,0.5-0.6,0.6l-0.9,0l0.1,0l-0.9,0c-0.2,0-0.4-0.3-0.1-0.6c-0.5,0.2-1,0.4-1.5,0.3c1.4,0.3,3.1,0.7,4.6,1.3
					c-0.6,0.2-1.7,0-2.3,0.1c-0.8-0.4-2.4-0.6-3.6-0.8c-0.3,0-0.4,0.7-1,0.5c-0.3-0.4-0.7,0.1-1.2-0.3c0.6-0.3,1.2-0.2,1.7-0.2
					c-0.1-0.5-1.5-0.3-1.9-0.4c-0.2,0.2-1.4,0.1-2.1,0.3c0.3-0.5-0.6-0.3-1-0.6c-0.5,0-0.8,0.2-0.6,0.4c-0.1,0.6,1.9,0.2,1.3,0.9
					c-0.2-0.3-1.1-0.1-1.6-0.1c0,0.3,0.4,0.2,0,0.5c-0.6,0-1.2,0.4-1.5,0.1c0.1-0.1,0.3,0,0.5,0c-0.7,0,3.9-2.2,3-2
					c0.3,0.3-4.1,2-3.6,2c0.5,0.1-0.3,0.6,0.2,0.7l0.5-0.4c0.6,0.1,0.9,0.6,0.7,0.8c-1.1,0,2.9-2.3,2-1.9l0.4,0.1
					c-0.4,0.2-1.4,0.4-1.8,0.1c0,0.3-0.5,0.4-0.9,0.6l-0.2,0c-0.4,0.2-1.1,0.1-0.8,0.5c2.6-0.2-1.6,3.2,1,3.2
					c-1.1-0.6,0.3-0.7,1.4-0.8c0.1,0.2,0.6,0.5,1.4,0.7c0.7-0.1,0.4-0.3,0.5-0.4c0.4,0.1,1.1,0.2,1.1,0.6c0.5-0.4,0.9,0.2,1.5,0
					c0.6-0.2,0-0.2,0.3-0.4c0.9,0,2.1,0,2.8,0c0.3,0.3,1.1,0.9,0.6,1.4c-1.3,0,0.5-0.9-0.9-0.7c0.6,0.7-1.2,0.3-1.4,0.9
					c0.4,0.3,1.3,0.3,2.1,0.1l-0.2-0.1c0.6-0.1,1.9-0.4,2.6,0c-0.2,0.3,0.2,0.5-0.3,0.5l0.9,0c0.1-0.1,0.2-0.2,0-0.2
					c0.4-0.2,0.8-0.1,1.2,0c0.1,0.3,4.7-1.4,4.5-1.2c0.6,0,0.8,0.4,1.4,0.1c0.1-0.2-6.1,1.3-5.2,1.1c0.6,0.3,7.2-1.8,7.6-1.2
					c0.5,0,1-0.1,0.9-0.4c0.8,0.1-0.2,0.6,0.4,0.8c0,0-0.1-0.1,0.1-0.1l0.6,0.3c1.2-0.5,3.1,0,4.4-0.6c-0.4,0.3-0.8,0.9-1.6,1.2
					l-0.2-0.1c-0.1,0.1-0.8,0.2-0.8,0.5c0.8,0.2,1.5,0.1,2.3-0.2c0.2,0.1,0.3,0.1,0.5,0.2c0,0,0-0.1,0-0.1c0.3,0.2,0.3,0.2,0.2,0.3
					c0,0,0,0-0.1,0.1c0.5,0.8,3.1-0.7,4.6-0.3c0.4-0.1,0-0.1,0.6-0.3c1.5,0.3,2.5,0.5,4.1,0.6c0.5-0.4,0.5-0.5-0.1-0.9l1.2,0.1
					c-1,1,2.2,0.8,1.1,1.8c0.4,0.2,1.1,0.2,1.7,0c0.1-0.2,0.1-0.6,1-0.7c1.2,0.3,0.9,0.2,1.8,0.4c0.2,0.3-0.1,0.4-0.1,0.7
					c1.5-0.5,1.3,0.6,2.7,0.5c0.9-0.1,2.6-0.2,2.6-0.8C199.5,187.6,199.5,188,199.4,188.5z"/>
			</g>
		</g>
	</g>
	<g>
		<g>
			<g>
				<path d="M378.9,221.3l0.3,0.8c-0.6-1.2-1.3-2.6-1.8-3.9c-0.6-1.3-1.2-2.7-1.7-4c1.3,6.5,3,13.8,8.6,16.6
					c-1.7,1.4-0.2,7.3,0.3,7.2c0.9,1,1.6,2.1,2.4,3.2c-0.5-0.8-1-1.5-1.5-2.3c0.5,0.7,1,1.5,1.5,2.3c4.7,7,7.1,15.8,9.8,25
					c0.8,2.5,2.4,7.2,4.2,11.9c1.8,4.7,3.9,9.4,5,12.1c0.3,0.8,0.7,1.5,1,2.3c-0.5-1.3-0.5-1.3-1-2.6c2.1,2.8,4.2,5.2,6.2,7.5
					c0-0.6,0.2-0.8-0.1-2.1l0.6,1.4c0.7,0.3,1.5,1.2,2.3,2.1c0.8,0.9,1.5,1.8,2.1,2.3c-0.6,0,0,1,0.6,1.9l0-0.5
					c1.1,1.6,2.3,3.3,3.6,4.9c1.3,1.6,2.6,3.1,3.6,4.5c0.3,0.4,0.4,0.8,0.4,1l2.3,2.4c-0.6,0.2,1.3,2.5,0,1.5
					c2.1,1.5,3.3,3.7,5.3,5.1c5.2,6.5,10.8,13.1,15.8,19.9l0.1-0.3c0.9,1.2,1.9,2.2,2.9,3.4c0.9,1.2,1.8,2.5,2.4,4.2
					c1.7,2.1,3.5,5.4,5,6c0.5,1.5,1.1,2.4,1.6,3.4c0.5,1,0.9,2,1.4,3.5c0.2-0.5,0.6,0.2,0.9,0.9c0.3,0.6,0.5,1.1,0.7,0.4
					c0.4-2.2-0.3-2.2,0-4.1l-0.2,0.1c-1-8.4-4-16.5-8.1-23.7c-3.3-4.5-6.4-9.6-9.9-14c-3.8-4.7-8.1-9.4-11.6-13.1
					c-0.9-0.8-1-1.8-1.4-2.8c-3-3.5-6.3-8.2-9.4-12.2c0.1,0.1,0.1,0.2,0.1,0.2c-0.8-1.1-1.3-2.2-1.8-3.2c-0.5-1-1-2.1-1.7-3.2
					c-0.1,0.1-0.4-0.2-0.5-0.4c0.2-0.4-2-3.5-4.2-6.8c-2.2-3.3-4.3-6.8-4.3-7.3c-0.1-0.2-0.3-0.5-0.4-0.7
					c-1.9-5.3-2.5-11.4-4.4-15.9c-0.8-0.9-1.5-1.9-2.2-2.5c0-0.9-0.7-0.9-1-1.9c0.6-3.1-0.6-4.3-0.7-2.8c-1-2-1.6-4.1-2.4-5.9
					c-0.4-0.8-0.9-1.6-1.4-2.4c-0.4-0.7-0.4-1.2-0.1-1.7c-1-1.8-0.4-1.4-1-3.4c0.4-0.7-2.9-4.5-3-5.1l0.2,0.3
					c-0.9-2.3-0.5-4.2-1.5-6.4c-2.4-6.2-6-12.5-8.8-18c-0.6,0.2,0.8,1.1,0.1,1.6c-1.6-3.3-2.7-6.8-4.5-10.1
					c-0.2-0.7-0.3-1.5-0.3-1.9c-0.4-1.1-0.6-0.4-1-1.2l0.4-0.4c-1-0.8-0.4-1.9-1.2-2.8c-0.2,0.1-0.5-0.3-0.7-0.7
					c0.5-0.3-0.7-1.1-0.2-1.3l0,0c-0.1-0.2-0.3-0.4-0.3-0.7c-0.4-0.3-4.2-3.3-4.7-3.5l0-0.2c-0.4-0.6-0.9-0.6-0.8-0.2l-0.4-0.7
					l0.1,0.1l-0.4-0.7c0-0.2,0.1-0.5,0.4-0.4c-0.4-0.3-0.8-0.7-1-1.1c0.4,1.3,0.8,2.9,1.1,4.4c-0.5-0.4-0.8-1.4-1.1-1.8
					c-0.1-0.8-0.6-2.3-1-3.4c-0.2-0.2-0.8,0-0.9-0.6c0.2-0.5-0.4-0.5-0.4-1.1c0.5,0.3,0.7,0.8,1,1.3c0.4-0.4-0.4-1.3-0.6-1.8
					c-0.3-0.1-0.7-1.1-1.2-1.5c0.6,0,0-0.6,0-1.1c-0.2-0.4-0.5-0.5-0.6-0.3c-0.5,0.2,0.8,1.7-0.1,1.5c0.1-0.3-0.5-1-0.7-1.4
					c-0.3,0.2,0,0.4-0.4,0.3c-0.2-0.5-0.9-0.7-0.8-1.2c0.1,0,0.2,0.2,0.3,0.4c-0.4-0.6,3.8,2,3.1,1.3c-0.1,0.3-3.8-2.2-3.5-1.8
					c0.1,0.4-0.6,0.1-0.5,0.5l0.6,0.2c0.2,0.6-0.1,1.1-0.4,1c-0.5-0.9,3.4,1.2,2.6,0.6l0.1,0.4c-0.4-0.2-1.1-0.9-1-1.4
					c-0.3,0.2-0.6-0.2-0.9-0.4l0-0.1c-0.4-0.3-0.6-0.8-0.8-0.3c1.4,2-3.5,0.4-2.3,2.5c0-1.2,0.8-0.1,1.4,0.7
					c-0.1,0.2-0.1,0.8,0.1,1.5c0.4,0.5,0.4,0.2,0.6,0.2c0.1,0.4,0.4,1,0,1.1c0.6,0.2,0.2,0.8,0.7,1.2c0.5,0.3,0.1-0.1,0.5,0.1
					c0.4,0.7,1,1.7,1.3,2.2c-0.1,0.4-0.2,1.3-1,1.2c-0.6-1.1,1-0.1,0.2-1.1c-0.3,0.9-0.8-0.8-1.4-0.7c-0.1,0.5,0.4,1.2,0.8,1.7
					l0-0.2c0.4,0.4,1.2,1.4,1.2,2.1c-0.3,0-0.3,0.4-0.6,0l0.4,0.7c0.1,0,0.3,0.1,0.2-0.1c0.4,0.2,0.5,0.6,0.5,0.9
					c-0.2,0.2,3.3,3.1,3.1,3.1c0.3,0.5,0,0.8,0.6,1.2c0.2-0.1-3.8-4.3-3.3-3.7c0,0.3,1.2,1.5,2.4,2.8c1.1,1.2,2.2,2.5,2.1,2.8
					c0.2,0.4,0.6,0.8,0.8,0.6c0.3,0.7-0.6,0.1-0.5,0.7c0,0,0.1-0.1,0.2,0l-0.1,0.6c1,0.8,1.3,2.5,2.4,3.3c-0.4-0.1-1.1-0.2-1.7-0.7
					l0.1-0.2c-0.1-0.1-0.5-0.5-0.8-0.4c0.2,0.7,0.6,1.2,1.2,1.8c0,0.2,0,0.3,0,0.5c0,0,0.1,0,0.1-0.1c0,0.3-0.1,0.3-0.2,0.3
					c0,0-0.1,0-0.1,0c-0.5,0.8,1.9,2.2,2.2,3.6c0.3,0.3,0.1,0,0.5,0.3c0.4,1.4,0.6,2.3,1.1,3.7c0.5,0.2,0.7,0.2,0.7-0.5l0.4,1
					c-1.3-0.4,0.1,2.2-1.2,1.7c0,0.4,0.2,1,0.6,1.4c0.2-0.1,0.6-0.2,1,0.5c0.2,1.1,0.2,0.8,0.3,1.7c-0.2,0.3-0.4,0.1-0.6,0.2
					c1,1-0.1,1.4,0.6,2.5c0.4,0.7,1.2,2.1,1.7,1.8C379.7,221,379.3,221.1,378.9,221.3z"/>
			</g>
		</g>
	</g>
	<g>
		<g>
			<g>
				<path d="M458,204.9l-0.1,0.9c-0.1-2.9,0.1-5.8,0.3-8.8c-1.8,6.4-3.5,14,0.6,19c-2.1,0.6-3.1,6.8-2.5,6.9c0.4,1.3,0.7,2.6,1,3.9
					c-0.2-0.9-0.3-1.8-0.5-2.7c0.2,0.9,0.4,1.8,0.5,2.7c1.7,8.4,1,17.5,0.3,26.9c-0.4,5.2-0.8,19.4-1.3,24.8
					c-0.1,0.8-0.1,1.5-0.2,2.3c0.2-1.3,0.2-1.3,0.4-2.6c0.6,3.3,1.2,6.2,1.5,9.1c0.3-0.5,0.6-0.6,1-1.8l-0.2,1.5
					c0.9,1.3,0.9,4.4,1.2,5.8c-0.5-0.3-0.5,0.8-0.6,1.8l0.3-0.4c-0.2,3.8,0.2,8.2,0.2,11.6c0,0.5-0.2,0.8-0.3,1l0.4,3.3
					c-0.6-0.2-0.5,2.7-0.9,1.2c0.7,2.4,0.3,4.9,1.1,7.2c0.1,8.3,0.7,17.2,1.8,25.8l0.2-0.2c0.4,3,1.7,5.7,1.3,9.3
					c0.8,2.6,1.3,6.3,2.6,7.4c0.2,3,0.8,4.2,1.2,7.2c0.6-0.8,0.8,2.9,1.3,1.4c0.9-2,0.1-2.1,0.8-3.7l-0.2,0.1
					c0.9-7.8,1.4-15.6,1.7-23.5c-0.6-5.3-0.2-11-0.4-16.4c-0.3-5.9-0.7-12.3-1.3-17.3c-0.2-1.2,0.3-2.1,0.6-3.1
					c-0.3-4.6-0.1-10.6-0.5-15.8c0,0.1,0,0.2,0,0.3c-0.1-2.8,0.5-4.9,0.4-7.6c-0.2,0-0.2-0.4-0.3-0.6c0.8-0.5-1.9-16-1.4-17
					c0-0.3-0.1-0.6-0.1-0.9c0.3-5.7,2-11.7,1.8-16.6c-0.4-1.1-0.8-2.3-1.2-3.2c0.4-0.9-0.3-1-0.3-2.1c1.7-2.7,1-4.2,0.4-2.9
					c-0.2-2.2-0.1-4.4-0.2-6.3c-0.1-0.9-0.3-1.8-0.4-2.7c-0.1-0.8,0.1-1.2,0.5-1.6c-0.3-2,0.2-1.4,0.3-3.5c0.6-0.5-1-5.2-0.8-5.8
					l0.1,0.3c0.1-2.4,1.2-4,1.3-6.3c0.4-6.5-0.1-13.6,0.1-19.7c-0.6-0.1,0.1,1.3-0.7,1.4c0.1-3.6,0.8-7.2,0.9-10.8
					c0.2-0.6,0.5-1.4,0.7-1.7c0.2-1.1-0.3-0.7-0.2-1.5l0.6-0.1c-0.5-1.2,0.6-1.8,0.4-3c-0.2-0.1-0.3-0.5-0.2-0.9
					c0.6,0,0-1.3,0.5-1.2l0,0c0-0.2,0-0.4,0.1-0.7c-0.2-0.5-1.9-4.9-2.1-5.3l0.1-0.2c0-0.7-0.5-0.9-0.6-0.6l0-0.8l0,0.1l0-0.8
					c0.1-0.1,0.3-0.3,0.6-0.1c-0.2-0.5-0.3-1-0.2-1.4c-0.4,1.3-0.9,2.9-1.5,4.2c-0.2-0.5,0.1-1.5,0-2.1c0.4-0.7,0.7-2.2,1-3.3
					c0-0.2-0.7-0.4-0.4-1c0.5-0.3,0-0.6,0.3-1.1c0.2,0.5,0.1,1.1,0.1,1.6c0.5-0.1,0.4-1.3,0.5-1.8c-0.2-0.2,0-1.3-0.2-1.9
					c0.5,0.3,0.3-0.5,0.6-0.9c0.1-0.4-0.2-0.7-0.3-0.6c-0.6-0.1-0.3,1.8-0.9,1.2c0.3-0.2,0.2-1,0.1-1.5c-0.3,0-0.2,0.3-0.5,0
					c0.1-0.5-0.3-1.1,0-1.4c0.1,0.1,0,0.3,0,0.5c0-0.7,2,3.7,1.9,2.8c-0.3,0.2-1.9-3.9-1.9-3.4c-0.1,0.4-0.6-0.3-0.7,0.1l0.4,0.5
					c-0.1,0.6-0.7,0.8-0.9,0.6c0-1,2.1,2.8,1.8,2l-0.1,0.3c-0.2-0.4-0.4-1.3-0.1-1.7c-0.3,0-0.4-0.5-0.5-0.9l0.1-0.1
					c-0.2-0.4-0.1-1-0.5-0.7c0.1,2.4-3.1-1.6-3.3,0.8c0.7-1,0.7,0.3,0.8,1.4c-0.2,0.1-0.6,0.6-0.7,1.3c0.1,0.6,0.2,0.4,0.4,0.5
					c-0.1,0.4-0.3,1-0.6,1c0.4,0.5-0.3,0.8-0.1,1.4c0.2,0.5,0.2,0,0.4,0.3c0,0.8-0.1,1.9-0.2,2.5c-0.3,0.2-0.9,1-1.4,0.5
					c0.1-1.2,0.8,0.5,0.7-0.8c-0.8,0.5-0.2-1.1-0.8-1.3c-0.3,0.4-0.3,1.2-0.2,1.9l0.1-0.1c0.1,0.6,0.3,1.8-0.1,2.4
					c-0.3-0.2-0.5,0.1-0.5-0.3l0,0.8c0.1,0.1,0.2,0.2,0.2,0c0.2,0.4,0.1,0.8-0.1,1.1c-0.3,0.1,1.2,4.4,1,4.2c0,0.6-0.4,0.7-0.1,1.3
					c0.2,0.1-1-5.7-0.9-4.9c-0.3,0.5,1.5,6.7,0.9,7.1c0,0.4,0.1,1,0.4,0.9c-0.1,0.7-0.5-0.2-0.8,0.3c0,0,0.1,0,0.1,0.1l-0.4,0.5
					c0.5,1.1-0.1,2.8,0.5,4c-0.3-0.3-0.9-0.7-1.1-1.5l0.1-0.1c-0.1-0.1-0.2-0.7-0.5-0.7c-0.2,0.7-0.1,1.4,0.2,2.1
					c-0.1,0.1-0.2,0.3-0.2,0.4c0,0,0.1,0,0.1,0c-0.2,0.3-0.2,0.2-0.3,0.1c0,0,0,0-0.1-0.1c-0.8,0.5,0.5,2.9,0.1,4.2
					c0.1,0.4,0.1,0,0.3,0.5c-0.3,1.4-0.6,2.3-0.8,3.8c0.4,0.5,0.5,0.5,0.9-0.1l-0.1,1.1c-1-1-0.9,2-1.9,1c-0.2,0.3-0.3,1-0.1,1.6
					c0.2,0.1,0.6,0.2,0.6,0.9c-0.3,1.1-0.2,0.8-0.5,1.7c-0.3,0.2-0.4-0.1-0.7-0.1c0.4,1.4-0.7,1.2-0.6,2.5c0.1,0.8,0.1,2.4,0.7,2.4
					C458.8,205,458.4,205,458,204.9z"/>
			</g>
		</g>
	</g>
	<g>
		<g>
			<g>
				<path d="M395.7,179l0.4-0.1c-1.3,0.6-2.8,0.9-4.2,1.2c1.8,0.4,3.8,0.6,5.4,0.1c1.6-0.5,2.9-1.7,3.2-4c0.6,0.9,1.7,1.2,2.6,1.3
					c1,0,1.8-0.3,1.7-0.5c0.4-0.6,0.9-1.3,1.3-1.8c-0.3,0.4-0.7,0.7-1,1.2c0.3-0.4,0.6-0.8,1-1.2c1.5-1.8,3-3.1,4.4-3.6
					c0.7-0.3,1.3-0.3,2.1-0.4c0.8,0,1.8,0,2.9,0.1c1.2,0,3.8-0.1,6.2-0.4c2.5-0.3,5-0.7,6.4-0.8c0.4,0,0.8-0.1,1.2-0.1
					c-0.7,0-0.7,0-1.4,0c1.5-1,2.7-2,3.9-2.8c-0.3-0.2-0.5-0.5-1.2-0.7l0.8-0.1c0.3-1.1,1.8-1.5,2.3-2.2c0,0.5,0.6,0.4,1.1,0.2
					l-0.3-0.2c1.8-0.5,3.7-1.8,5.2-2.5c0.2-0.1,0.4,0,0.6,0.1c0.4-0.4,0.9-0.7,1.3-1.1c0.2,0.6,1.4-0.2,0.9,0.6
					c0.7-1.2,2-1.4,2.6-2.6c3.4-2.1,6.5-4.5,9.6-6.9l-0.2-0.2c1-0.9,1.8-2.5,3.5-2.5c0.9-1.1,2.6-1.8,3-3.1c0.7-0.2,1.3-0.4,1.8-0.6
					c0.5-0.3,1.1-0.5,1.9-0.6c-0.2-0.3,0.2-0.5,0.6-0.6c0.4-0.1,0.6-0.3,0.3-0.6c-1-1-1.2-0.2-2.1-1l0,0.2
					c-4.6-1.1-9.4-0.2-13.3,1.3c-2.4,1.6-5,2.6-7.2,4.1c-2.3,1.6-4.6,3.4-6.3,4.9c-0.4,0.4-1,0.1-1.5,0c-1.7,1.2-4.1,2-6.1,3.1
					c0,0,0.1,0,0.1,0c-1.1,0.5-2.2,0.2-3.3,0.7c0.1,0.2-0.1,0.2-0.2,0.4c-0.2-0.4-1.7,0.6-3.3,1.5c-1.6,0.9-3.3,1.8-3.5,1.6
					c-0.1,0.1-0.2,0.1-0.4,0.2c-1.3,0.1-2.6-0.2-3.9-0.5c-1.3-0.3-2.8-0.4-4.1-0.1c-0.5,0.5-1.1,1-1.5,1.6c-0.6-0.2-0.5,0.5-1.1,0.6
					c-2.2-1-2.7,0.1-1.7,0.3c-1.1,0.7-2.2,1.2-3,1.7c-0.3,0.3-0.6,0.7-0.9,1c-0.2,0.3-0.5,0.2-0.9-0.1c-0.6,0.6-0.6,0.1-1.5,0.4
					c-0.4-0.4-1.5,1.9-1.9,1.9l0.1-0.1c-1,0.4-2.1-0.4-3,0c-2.7,0.8-5.5,2.3-8.1,2.9c0.2,0.6,0.5-0.3,0.8,0.5
					c-1.5,0.4-3.3,0.1-4.9,0.5c-0.3-0.1-0.8-0.3-0.9-0.4c-0.6-0.1-0.2,0.4-0.6,0.4l-0.2-0.5c-0.4,0.6-0.9-0.4-1.4,0
					c0,0.2-0.1,0.3-0.3,0.3c-0.2-0.6-0.5,0.2-0.7-0.3l0,0c-0.1,0-0.2,0.1-0.3,0c-0.1,0.3-1.7,2.3-1.8,2.6l-0.1-0.1
					c-0.3,0.1-0.3,0.6-0.1,0.6l-0.4,0.1l0-0.1l-0.4,0.1c-0.1,0-0.2-0.3-0.2-0.6c-0.2,0.3-0.4,0.4-0.6,0.4c0.7,0.2,1.5,0.5,2.2,1
					c-0.2,0.3-0.7,0.1-1,0.2c-0.4-0.3-1.1-0.5-1.7-0.6c-0.1,0.1,0,0.7-0.3,0.5c-0.2-0.4-0.3,0.1-0.6-0.2c0.2-0.3,0.4-0.3,0.7-0.3
					c-0.2-0.5-0.7-0.2-0.9-0.3c0,0.2-0.6,0.1-0.8,0.4c0-0.5-0.3-0.3-0.6-0.5c-0.2,0-0.3,0.2-0.2,0.4c0.1,0.6,0.9,0.1,0.7,0.8
					c-0.1-0.2-0.5-0.1-0.7,0c0.1,0.3,0.2,0.2,0.1,0.5c-0.3,0-0.4,0.4-0.6,0.1c0-0.1,0.1-0.1,0.2-0.1c-0.3,0,1.2-2.4,0.8-2.1
					c0.2,0.2-1.3,2.2-1.1,2.2c0.2,0.1,0,0.6,0.2,0.6l0.1-0.4c0.3,0,0.5,0.5,0.5,0.8c-0.5,0.1,0.8-2.4,0.5-2l0.2,0.1
					c-0.1,0.2-0.5,0.5-0.8,0.2c0.1,0.3-0.1,0.5-0.3,0.6l-0.1,0c-0.2,0.2-0.4,0.2-0.2,0.6c1.1-0.3,0,3.2,1.1,3.1
					c-0.6-0.5,0-0.7,0.4-0.9c0.1,0.2,0.4,0.5,0.8,0.6c0.3-0.1,0.1-0.3,0.1-0.5c0.2,0.1,0.5,0.2,0.6,0.5c0.1-0.5,0.4,0.2,0.7,0
					c0.2-0.2-0.1-0.2,0.1-0.4c0.4,0,0.9-0.1,1.2-0.1c0.2,0.3,0.7,0.8,0.6,1.3c-0.6,0.1,0-0.9-0.5-0.6c0.4,0.7-0.5,0.3-0.4,0.9
					c0.3,0.3,0.6,0.2,0.9,0l-0.1-0.1c0.2-0.2,0.8-0.5,1.1-0.1c0,0.3,0.2,0.4,0,0.6l0.4,0c0-0.1,0.1-0.2-0.1-0.2
					c0.1-0.2,0.3-0.2,0.5-0.1c0.1,0.3,1.7-1.7,1.7-1.5c0.3-0.1,0.4,0.3,0.6,0c0-0.2-2.3,1.6-2,1.4c0.3,0.2,2.7-2.2,3-1.7
					c0.2-0.1,0.4-0.2,0.3-0.5c0.4,0,0,0.6,0.4,0.7c0,0-0.1-0.1,0-0.1l0.3,0.3c0.4-0.6,1.3-0.2,1.7-1c-0.1,0.3-0.1,0.9-0.4,1.3
					l-0.1-0.1c0,0.1-0.3,0.3-0.2,0.5c0.4,0.1,0.7,0,0.9-0.4c0.1,0.1,0.2,0.1,0.3,0.2c0,0,0-0.1,0-0.1c0.2,0.1,0.2,0.2,0.2,0.3
					c0,0,0,0,0,0.1c0.4,0.7,1.2-0.9,1.9-0.7c0.1-0.2,0-0.1,0.2-0.4c0.7,0.1,1.2,0.2,2,0.2c0.1-0.4,0.1-0.6-0.3-0.8l0.5-0.1
					c-0.1,1.1,1.2,0.6,1,1.6c0.2,0.2,0.5,0.1,0.8-0.1c-0.1-0.2-0.1-0.6,0.2-0.7c0.6,0.1,0.4,0.1,0.9,0.2c0.2,0.3,0.1,0.4,0.2,0.7
					c0.5-0.6,0.8,0.4,1.4,0.2c0.3-0.2,1.1-0.5,0.9-1.1C395.5,178.1,395.6,178.5,395.7,179z"/>
			</g>
		</g>
	</g>
	<g>
		<g>
			<g>
				<path d="M300.9,52.7l0.8,0.5c-2.8-1.5-5.6-3.3-8.4-5.1c5.4,5.1,11.9,10.7,18.7,9.9c-0.5,2.1,5.1,6.4,5.5,6
					c1.4,0.4,2.9,0.8,4.3,1.3c-1-0.4-1.9-0.7-2.9-1c1,0.3,1.9,0.7,2.9,1c8.9,3.1,17.4,8.7,26.1,14.7c4.9,3.2,18.2,11.6,23,15.2
					c0.7,0.5,1.4,1,2.1,1.5c-1.1-0.9-1.1-0.9-2.3-1.8c3.4,1.4,6.5,2.6,9.4,3.9c-0.3-0.6-0.3-0.9-1.2-1.9l1.3,1
					c1.7,0,4.6,1.8,6.2,2.3c-0.5,0.2,0.5,1,1.4,1.6l-0.2-0.5c3.5,2.4,7.9,4.6,11.1,6.7c0.4,0.3,0.7,0.6,0.8,0.9l3.3,1.6
					c-0.6,0.4,2.3,2.1,0.6,1.5c2.7,0.8,4.8,2.7,7.3,3.5c2,1.2,4,2.5,6,3.7c2,1.2,4.1,2.5,6.2,3.7c4.2,2.4,8.4,4.9,12.6,7.1l-0.1-0.3
					c3,1.5,6.1,2.2,9.2,4.9c2.9,1,6.5,3,8.2,2.7c2.8,1.8,4.3,2.1,7.2,3.8c-0.3-1,3.1,1.3,2-0.1c-1.3-2-1.8-1.5-2.9-3.1l-0.1,0.2
					c-3.3-2.9-6.6-5.8-10-8.6c-3.4-2.8-6.9-5.5-10.5-8c-5.2-2.9-10.3-6.8-15.5-10c-5.7-3.4-11.9-6.9-17-9.5
					c-1.2-0.6-1.8-1.5-2.6-2.4c-4.5-2.5-10.1-6.2-15.3-8.9c0.1,0.1,0.2,0.1,0.2,0.2c-2.7-1.5-4.4-3.3-7.1-4.8
					c-0.1,0.2-0.5-0.1-0.7-0.1c0-1-16.3-7.6-17-8.5c-0.3-0.1-0.6-0.3-0.9-0.4c-5.3-3.6-10.3-8.3-15.1-10.9c-1.2-0.2-2.6-0.6-3.7-0.7
					c-0.7-0.8-1.2-0.3-2.1-0.9c-1.8-2.9-3.6-3.2-2.6-1.9c-2.2-1-4.3-2.4-6.2-3.4c-0.9-0.4-1.9-0.8-2.8-1.1c-0.8-0.3-1.1-0.8-1.3-1.3
					c-2-0.9-1.3-0.9-3.2-2.2c-0.2-0.8-5.5-2-6-2.5l0.4,0.1c-2.3-1.4-3.3-3.3-5.5-4.6c-6.1-3.9-13.3-7.4-19.1-10.8
					c-0.4,0.5,1.4,0.6,1,1.4c-3.4-2-6.5-4.6-10-6.7c-0.6-0.5-1.2-1.2-1.4-1.5c-1-0.8-0.8-0.1-1.6-0.6l0.1-0.6
					c-1.5-0.3-1.5-1.5-2.8-1.9c-0.2,0.2-0.6,0-1-0.3c0.2-0.5-1.3-0.6-1-1.1l0,0c-0.3-0.1-0.5-0.2-0.7-0.4c-0.6-0.1-5.9-0.8-6.6-0.8
					l-0.2-0.2c-0.7-0.3-1.2,0-0.8,0.3l-0.9-0.4l0.1,0l-0.9-0.4c-0.1-0.1-0.2-0.4,0.1-0.6c-0.6,0-1.2-0.1-1.6-0.4
					c1.3,0.9,2.8,2.1,3.9,3.3c-0.7-0.1-1.6-0.8-2.2-1c-0.6-0.7-2.1-1.6-3.2-2.4c-0.3-0.1-0.7,0.5-1.2,0c-0.2-0.5-0.7-0.2-1.1-0.7
					c0.7,0,1.2,0.3,1.8,0.5c0.1-0.6-1.4-0.9-1.8-1.2c0,0-0.1,0-0.1,0l-2.2,11.5c0.4-0.1,1.4,0.1,2,0c-0.3,0.5,0.6,0.4,1,0.7
					c0.5,0.1,0.8-0.1,0.6-0.3c0.2-0.6-2-0.4-1.3-1c0.2,0.3,1.2,0.2,1.7,0.2c0-0.3-0.3-0.2,0-0.5c0.6,0.1,1.2-0.3,1.5,0.1
					c-0.1,0.1-0.4,0-0.5,0c0.8,0.1-4.2,1.8-3.2,1.7c-0.2-0.3,4.4-1.6,3.9-1.7c-0.5-0.2,0.4-0.5-0.1-0.7l-0.5,0.4
					c-0.7-0.1-0.9-0.7-0.7-0.9c1.1,0.1-3.2,2-2.3,1.7l-0.4-0.2c0.4-0.2,1.5-0.3,1.9,0c0-0.3,0.6-0.4,1-0.5l0.2,0.1
					c0.5-0.1,1.1,0,0.8-0.5c-2.7-0.1,1.9-3-0.7-3.3c1.1,0.7-0.4,0.7-1.6,0.7c-0.1-0.2-0.6-0.6-1.4-0.8c-0.7,0-0.4,0.2-0.6,0.4
					c-0.4-0.2-1.1-0.3-1-0.7c-0.1,0.1-0.2,0.1-0.2,0.1l0.3-1.8c0.5,0,0.6,0.6,1.2,0.7c0.6,0,0-0.2,0.5-0.2c0.8,0.4,2,0.9,2.6,1.2
					c0.1,0.4,0.7,1.3-0.1,1.5c-1.2-0.6,0.8-0.6-0.6-1c0.3,0.9-1.2-0.3-1.7,0.2c0.3,0.5,1.1,0.8,1.9,1l-0.1-0.1
					c0.7,0.1,1.9,0.5,2.4,1.2c-0.3,0.2-0.1,0.5-0.5,0.4l0.8,0.4c0.1,0,0.3-0.1,0.1-0.2c0.5,0,0.8,0.3,1.1,0.5c0,0.3,4.9,1,4.7,1.1
					c0.6,0.3,0.6,0.7,1.3,0.8c0.1-0.1-1.4-0.6-2.9-1c-1.4-0.4-2.8-0.7-2.4-0.6c0.2,0.3,2,0.7,3.8,1.2c1.8,0.5,3.6,1.1,3.6,1.4
					c0.4,0.2,1,0.4,1,0.1c0.7,0.5-0.5,0.4-0.1,0.9c0,0,0-0.1,0.2-0.1l0.3,0.6c1.3,0.2,2.7,1.6,4.2,1.7c-0.5,0.1-1.1,0.4-2,0.2
					l-0.1-0.2c-0.1,0-0.8-0.2-0.9,0c0.6,0.6,1.3,0.8,2.2,1c0.1,0.1,0.2,0.3,0.3,0.4c0,0,0-0.1,0-0.1c0.2,0.3,0.1,0.3,0,0.4
					c0,0,0,0-0.1,0c0,1,3.1,1.1,4.2,2.2c0.4,0.1,0.1-0.1,0.7,0c1.2,1,2,1.8,3.3,2.7c0.6-0.1,0.7-0.2,0.4-0.8l1,0.7
					c-1.4,0.3,1.5,1.9,0,2.2c0.2,0.4,0.8,0.8,1.5,0.9c0.2-0.2,0.5-0.5,1.2-0.1c0.9,0.9,0.7,0.6,1.4,1.4c0.1,0.4-0.3,0.3-0.4,0.6
					c1.5,0.4,0.8,1.2,2.1,1.9c0.8,0.4,2.4,1.2,2.7,0.7C301.5,52,301.3,52.3,300.9,52.7z"/>
			</g>
		</g>
	</g>
	<g>
		<g>
			<g>
				<path d="M101.9,125.1l0.9-0.4c-2.7,1.5-5.5,2.9-8.1,4.4c3.3-1.1,6.8-2.1,10-3.6c3.2-1.5,6.1-3.5,7.7-6.5
					c0.7,0.8,2.8,0.7,4.7,0.3c1.9-0.4,3.6-1.2,3.5-1.4c1.2-1,2.3-2,3.6-2.9c-0.9,0.6-1.7,1.2-2.5,1.9c0.8-0.6,1.7-1.3,2.5-1.9
					c7.7-5.8,17.1-10.2,26.6-15c2.7-1.3,7.4-4,12.2-6.8c4.8-2.7,9.6-5.5,12.2-6.9c0.8-0.4,1.5-0.8,2.3-1.3c-1.3,0.6-1.3,0.6-2.7,1.3
					c2.8-2.5,5.3-4.7,7.7-6.8c-0.6,0.1-0.9-0.1-2.2,0.2l1.5-0.7c0.8-1.6,3.7-3.4,4.8-4.6c0,0.6,1.1,0,2.1-0.6l-0.5,0
					c3.7-2.2,7.6-5.2,10.8-7.2c0.4-0.3,0.9-0.4,1.2-0.4l2.9-2.3c0.1,0.7,2.8-1.2,1.6,0.1c1.9-2.1,4.5-3.2,6.3-5.2
					c3.9-2.5,7.9-5.1,11.9-7.8c2-1.3,4-2.7,6-4.1l3-2.1c1-0.7,2-1.4,3-2.1l-0.3-0.1c1.4-1,2.6-2.1,3.9-3.2c0.7-0.5,1.4-1.1,2.1-1.5
					c0.8-0.5,1.6-0.9,2.6-1.3c2.2-2,5.7-4.4,6.2-6c3-1.6,3.9-2.8,6.8-4.5c-1-0.2,2.6-2.1,0.9-1.8c-2.4,0.1-2.2,0.9-4.2,1l0.1,0.2
					c-2.1,0.7-4.2,1.5-6.3,2.3c-2.1,0.8-4.1,1.7-6.1,2.6c-4.1,1.7-8.1,3.8-12.1,5.8c-4.9,3.4-10.7,6.3-15.9,9.7
					c-2.8,1.8-5.6,3.8-8.3,5.7c-2.7,1.9-5.3,3.9-7.5,5.6c-1,0.9-2.2,1-3.3,1.3c-4.2,3.1-9.9,6.5-14.6,10c0.1-0.1,0.2-0.1,0.3-0.1
					c-2.5,1.8-4.9,2.5-7.3,4.3c0.1,0.1-0.3,0.4-0.4,0.6c-0.9-0.4-14,11.2-15.2,11.3c-0.2,0.2-0.5,0.4-0.8,0.6
					c-5.6,3.1-12.1,5.1-16.7,8c-0.8,0.9-1.8,1.9-2.4,2.8c-1,0.2-0.8,0.9-1.9,1.4c-3.4,0-4.5,1.5-2.9,1.2c-2,1.4-4.2,2.4-6.1,3.5
					c-0.8,0.6-1.6,1.2-2.5,1.8c-0.7,0.5-1.2,0.5-1.8,0.4c-1.8,1.2-1.5,0.5-3.6,1.4c-0.8-0.3-4.7,3.4-5.4,3.5l0.3-0.2
					c-2.4,1.1-4.5,0.8-7,1.9c-3.4,1.4-7,3.1-10.4,5.1c-3.4,1.9-6.8,4.2-9.7,6.3c0.3,0.5,1.2-1.1,1.7-0.4c-3.5,2.4-7.1,4.4-10.3,6.8
					c-0.7,0.3-1.5,0.6-1.9,0.7c-1.1,0.6-0.4,0.7-1.1,1.2l-0.4-0.4c-0.8,1.2-1.9,0.7-2.7,1.6c0.1,0.2-0.3,0.5-0.6,0.7
					c-0.4-0.5-1,0.8-1.3,0.3l0,0c-0.2,0.1-0.3,0.3-0.6,0.4c-0.1,0.2-0.9,1.3-1.7,2.3c-0.4,0.5-0.8,1-1.1,1.4
					c-0.3,0.4-0.6,0.7-0.6,0.8l-0.2,0c-0.6,0.3-0.6,0.8-0.2,0.8c-0.2,0.1-0.5,0.2-0.7,0.3l0.1-0.1l-0.7,0.3c-0.2,0-0.4-0.2-0.3-0.5
					c-0.3,0.4-0.7,0.7-1.2,0.7c1.3-0.1,2.9-0.2,4.3-0.3c-0.4,0.4-1.4,0.6-1.9,0.9c-0.4,0-1,0-1.6,0.1c-0.6,0.1-1.2,0.1-1.8,0.2
					c-0.2,0.1-0.2,0.8-0.8,0.7c-0.4-0.4-0.6,0.2-1.1,0c0.4-0.4,0.9-0.4,1.4-0.5c-0.2-0.5-1.3,0-1.7-0.1c0,0.1-0.2,0.1-0.3,0.2
					l-6.2,2.1l2,5.4c0.2,0.5,0.5,1.2,0.9,1.8c0.4,0.6,1,1.3,1.6,1.7c0.6,0.5,1.3,0.8,1.9,1.1c0.6,0.2,1.2,0.3,1.7,0.4
					c-0.6,0.2-0.1,0.4,0.8,0.5c0.5,0.1,0.9,0,1.4,0c0.5,0,0.9-0.1,1.3-0.1c0.8-0.2,1.4-0.5,1.8-0.8c0.3-0.2,0.4-0.4,0-0.3
					c0.1-0.2-0.3-0.1-0.8,0.1c-0.5,0.1-1.2,0.3-1.9,0.4c-1.3,0.2-2.5-0.1-1.4-0.3c0.3,0.1,1.2,0.1,2.1-0.1c0.9-0.2,2-0.8,2.7-1.4
					c-0.2-0.2-1.1,0.5-0.4-0.4c0.8-0.6,1.5-1.5,1.9-2.6c0.4-1.1,0.5-2.2,0.5-2.9c0.1,0.2,0.1,0.6,0.1,1c0,0.4-0.1,0.9-0.2,1.3
					c0.2-0.8,0.3-0.1-0.2,1.4c-0.1,0.3-0.3,0.7-0.5,1.1c-0.2,0.4-0.5,0.7-0.8,1c-0.6,0.6-1.2,1.2-1.9,1.6c-1.4,0.9-3,1.2-4.2,1.2
					c-0.6,0-1.1,0-1.3,0c-0.2,0,0,0,0.5,0.1c-0.3-0.1,0.8,0,2.2-0.3c1.3-0.3,2.9-0.9,4.3-2.1c0.7-0.6,1.4-1.4,1.8-2.4
					c0.5-1,0.7-2.1,0.7-2.9c0-0.8-0.2-1.4-0.3-1.7c-0.1-0.2-0.1-0.1-0.1-0.2c0,0,0,0,0,0c0.1,1-0.1,0.6-0.3,0.3
					c-0.1-0.2-0.2-0.3-0.2-0.2c-0.1,0-0.1,0.1,0,0.6c0.2,0.6,0.3,1.4,0.2,2.2c-0.5,1.3-1.2,1.9-1.6,2.1c-0.4,0.2-0.5,0-0.4-0.3
					c0.5-0.7,0.6-0.5,0.2,0.3c-0.3,0.7-1.1,1.6-2.1,2.2c-0.9,0.6-2.1,1-2.9,1.1c-0.8,0.1-1.2,0.1-0.3,0.1c-0.4-0.1-0.8-0.2-1.3-0.4
					c0.8,0.1,2,0.1,3-0.1c1-0.2,2-0.6,2.7-0.7c-0.2-0.3,1.3-1.1,2.2-2.7c0.1-0.2,0.2-0.3,0.4-0.5c0.4-0.9,0.6-2.2,0.5-2.9
					c-0.1-0.8-0.3-1.1-0.4-0.4c0,0.3,0.1,0.6,0,0.9c0,0.3-0.1,0.6-0.1,0.8c-0.1,0.5-0.3,0.8-0.4,1.1c-0.3,0.5-0.5,0.6-0.6,0.5
					c-0.3-0.1-0.2-1-0.5-1.8c-0.2-0.8-0.8-1.2-1.1-1.2c-0.4,0-0.3,0.5-0.8,1.5c0.4-0.3,0.5-0.6,0.6-0.5c0.1,0,0.1,0.3,0,0.7
					c-0.1,0.4-0.4,0.8-0.8,1.2c-0.4,0.4-0.8,0.6-1.3,0.8c-0.3-0.2-1.1-0.1-2.3-0.6c-0.5-0.1-0.7-0.2-0.8-0.1c-0.1,0-0.1,0.2-0.2,0.2
					c-0.2-0.2-0.5-0.5-0.6-0.8c-0.2-0.3-0.2-0.6-0.2-0.8l0.1-1.6l0.6,0.3c0.1,0,0.2,0.1,0.1,0.2c0.4-0.6,0.9,0,1.5-0.3
					c0.5-0.3-0.1-0.2,0.2-0.5c0.8-0.2,2-0.6,2.7-0.7c0.4,0.2,1.4,0.4,1,1.1c-1.3,0.5,0.2-1-1.1-0.3c0.8,0.5-1.1,0.6-1.2,1.2
					c0.5,0.2,1.4-0.1,2.1-0.5l-0.2,0c0.6-0.4,1.8-1,2.6-1c0,0.3,0.3,0.4-0.1,0.6l0.9-0.4c0.1-0.1,0.1-0.3-0.1-0.2
					c0.3-0.4,0.8-0.5,1.1-0.5c0.1,0.1,1.1-0.8,2-1.7c0.9-0.9,1.7-1.8,1.7-1.7c0.6-0.4,0.9-0.1,1.3-0.7c0-0.1-1.2,1-2.3,2
					c-1.1,1-2.3,1.9-1.9,1.7c0.3,0,1.8-1.3,3.2-2.6c1.4-1.3,2.7-2.6,3-2.6c0.4-0.3,0.8-0.7,0.6-0.9c0.8-0.4,0.1,0.6,0.8,0.4
					c0,0-0.1-0.1,0-0.2l0.7-0.1c0.8-1.1,2.6-1.9,3.3-3.2c-0.1,0.5-0.1,1.2-0.6,2l-0.2,0c0,0.1-0.5,0.7-0.4,0.9
					c0.8-0.4,1.3-0.9,1.8-1.6c0.2,0,0.4-0.1,0.5-0.1c0,0-0.1,0-0.1-0.1c0.3,0,0.3,0,0.3,0.2c0,0,0,0.1,0,0.1
					c0.9,0.3,2.2-2.5,3.6-3.1c0.3-0.4-0.1-0.1,0.3-0.6c1.4-0.7,2.4-1.1,3.7-2c0.2-0.6,0.1-0.7-0.6-0.7l1-0.6
					c-0.3,1.4,2.3-0.6,1.9,0.9c0.4,0,1-0.4,1.4-0.9c-0.1-0.2-0.2-0.6,0.4-1.1c1.1-0.4,0.8-0.3,1.8-0.6c0.4,0.1,0.1,0.4,0.3,0.6
					c1-1.1,1.4-0.1,2.5-0.8c0.7-0.5,2.1-1.4,1.9-1.9C101.6,124.3,101.8,124.7,101.9,125.1z"/>
			</g>
		</g>
	</g>
	<g>
		<g>
			<g>
				<path d="M56.2,189.2l-0.1,0.9c0-2.9,0.2-5.9,0.4-8.9c-1.9,6.5-3.6,14.1,0.2,19.2c-2.1,0.5-3.3,6.8-2.7,6.9
					c0.4,1.3,0.6,2.7,0.8,4c-0.1-0.9-0.3-1.9-0.4-2.8c0.2,0.9,0.3,1.8,0.4,2.8c1.4,8.5,0.2,17.7-1,27.3c-0.7,5.3-1.8,19.7-2.7,25.1
					c-0.1,0.8-0.2,1.6-0.3,2.4c0.3-1.3,0.3-1.3,0.5-2.6c0.4,3.4,0.8,6.4,1.1,9.3c0.3-0.5,0.6-0.6,1.1-1.8l-0.3,1.5
					c0.8,1.4,0.6,4.5,1,6c-0.4-0.3-0.6,0.8-0.7,1.8l0.3-0.4c-0.3,3.9-0.2,8.4-0.3,11.9c0,0.5-0.2,0.8-0.4,1.1l0.3,3.3
					c-0.6-0.3-0.6,2.8-1,1.2c0.7,2.5,0.1,5,0.9,7.4c0,4.3,0.1,8.7,0.3,13.1c0.3,4.4,0.7,8.9,1.3,13.3l0.2-0.2
					c0.5,3.1,1.8,5.7,1.5,9.5c0.9,2.6,1.6,6.4,2.9,7.4c0.4,3,1.1,4.2,1.6,7.2c0.6-0.8,0.9,2.8,1.3,1.3c0.8-2,0-2.1,0.6-3.8l-0.2,0.1
					c0.3-3.9,0.3-7.9,0.5-11.8c0.2-3.9,0.2-7.9,0.3-11.8c-0.3-2.6-0.3-5.4-0.3-8.2c0-1.4,0-2.8,0-4.2c0-1.4,0-2.8,0-4.2
					c-0.1-3-0.2-6.1-0.4-9.1c-0.1-3-0.3-5.9-0.5-8.5c-0.1-1.2,0.4-2.1,0.7-3.1c-0.2-4.7,0.3-10.7,0.2-16c0,0.1,0,0.2,0,0.3
					c0-2.8,0.8-4.9,0.8-7.7c-0.2,0-0.2-0.4-0.3-0.6c0.9-0.4-1-16.3-0.4-17.3c0-0.3,0-0.6-0.1-0.9c0.7-5.8,2.6-11.8,2.7-16.8
					c-0.3-1.1-0.6-2.4-1.1-3.3c0.4-0.9-0.3-1.1-0.1-2.1c1.8-2.6,1.2-4.3,0.5-2.9c-0.1-2.2,0.1-4.5,0.1-6.5c-0.1-0.9-0.2-1.8-0.3-2.8
					c-0.1-0.8,0.2-1.2,0.6-1.6c-0.2-2,0.2-1.4,0.5-3.5c0.6-0.5-0.8-5.3-0.6-5.9l0.1,0.3c0.2-2.4,1.3-4.1,1.5-6.5
					c0.3-3.3,0.3-6.8,0.3-10.3c0-3.4,0-6.8,0-9.9c-0.6-0.1,0.2,1.4-0.7,1.4c0.1-3.7,0.8-7.4,0.8-11.1c0.2-0.7,0.4-1.5,0.6-1.8
					c0.2-1.2-0.3-0.7-0.3-1.6l0.6-0.1c-0.5-1.3,0.6-1.9,0.3-3.1c-0.2-0.1-0.3-0.5-0.3-0.9c0.6,0-0.1-1.3,0.5-1.3l0,0
					c0-0.3,0-0.4,0-0.8c-0.2-0.5-2-5-2.3-5.4l0.1-0.2c-0.1-0.7-0.5-0.9-0.6-0.5l0-0.8l0,0.1l0-0.8c0-0.2,0.3-0.3,0.6-0.1
					c-0.2-0.5-0.4-1-0.3-1.5c-0.3,1.3-0.7,3-1.2,4.4c-0.2-0.6,0-1.6-0.1-2.2c0.3-0.7,0.6-2.3,0.8-3.5c-0.1-0.3-0.7-0.4-0.5-1
					c0.4-0.3-0.1-0.7,0.2-1.2c0.3,0.5,0.2,1.1,0.2,1.7c0.5-0.1,0.3-1.4,0.4-1.9c-0.2-0.2-0.1-1.3-0.3-2c0.5,0.3,0.3-0.6,0.5-1
					c0-0.5-0.2-0.7-0.4-0.5c-0.6-0.1-0.2,1.9-0.8,1.3c0.3-0.2,0.1-1.1,0-1.6c-0.3,0-0.2,0.3-0.5,0.1c0-0.5-0.4-1.1-0.1-1.4
					c0.1,0.1,0.1,0.3,0.1,0.5c0-0.7,2.3,3.7,2,2.8c-0.3,0.3-2.1-3.9-2.1-3.4c-0.1,0.4-0.6-0.3-0.7,0.2l0.4,0.5
					c-0.1,0.6-0.6,0.9-0.8,0.7c0-1,2.3,2.7,1.9,1.9l-0.1,0.4c-0.2-0.4-0.5-1.3-0.2-1.7c-0.3,0-0.4-0.5-0.6-0.9l0-0.1
					c-0.2-0.4-0.1-1-0.5-0.7c0.2,2.5-3.2-1.4-3.2,1c0.6-1.1,0.7,0.3,0.9,1.3c-0.2,0.1-0.5,0.6-0.6,1.4c0.1,0.7,0.3,0.4,0.5,0.5
					c-0.1,0.4-0.2,1.1-0.6,1c0.5,0.5-0.2,0.8,0,1.4c0.2,0.5,0.2,0,0.4,0.3c0,0.8,0,2,0,2.6c-0.3,0.3-0.9,1.1-1.4,0.5
					c0-1.2,0.9,0.4,0.7-0.9c-0.7,0.6-0.3-1.1-0.9-1.3c-0.3,0.4-0.3,1.2-0.1,1.9l0.1-0.1c0.1,0.6,0.4,1.8,0,2.5
					c-0.3-0.1-0.5,0.2-0.6-0.3l0,0.8c0.1,0.1,0.2,0.2,0.2,0c0.2,0.4,0.1,0.8,0,1.1c-0.3,0.1,1.4,4.4,1.2,4.3c0,0.6-0.4,0.8-0.1,1.3
					c0.2,0-1.2-5.7-1.1-4.9c-0.3,0.5,1.7,6.8,1.2,7.2c0,0.4,0.1,1,0.4,0.9c-0.1,0.8-0.6-0.2-0.8,0.3c0,0,0.1,0,0.1,0.1l-0.3,0.5
					c0.5,1.2,0,2.9,0.6,4.1c-0.3-0.3-0.9-0.7-1.2-1.5l0.1-0.1c-0.1-0.1-0.2-0.8-0.5-0.7c-0.2,0.8-0.1,1.4,0.2,2.2
					c-0.1,0.1-0.1,0.3-0.2,0.4c0,0,0.1,0,0.1,0c-0.2,0.3-0.2,0.2-0.3,0.1c0,0,0,0-0.1-0.1c-0.8,0.5,0.6,2.9,0.2,4.3
					c0.1,0.4,0.1,0,0.3,0.5c-0.3,1.4-0.6,2.4-0.7,3.8c0.4,0.5,0.5,0.5,0.9-0.1l-0.1,1.1c-1-1-0.9,2.1-1.9,1c-0.2,0.3-0.3,1-0.1,1.6
					c0.2,0.1,0.6,0.2,0.6,0.9c-0.3,1.1-0.2,0.8-0.5,1.7c-0.3,0.2-0.4-0.1-0.7-0.1c0.4,1.4-0.7,1.2-0.6,2.5c0.1,0.8,0.1,2.4,0.7,2.5
					C57.1,189.3,56.7,189.3,56.2,189.2z"/>
			</g>
		</g>
	</g>
	<g>
		<g>
			<g>
				<path d="M75.1,161.1l0.4,0.2c-1.3-0.6-2.7-1.4-3.9-2.3c2.2,3.1,5,6.2,9,3.7c-0.6,2,1.8,4.3,2.1,3.8c0.8-0.1,1.5-0.1,2.2,0
					c-0.5-0.1-1-0.1-1.5-0.1c0.5,0,1,0.1,1.5,0.1c4.6,0.3,8.5,2.9,12.6,5.7c2.3,1.5,8.9,4.9,11.2,6.5c0.3,0.2,0.7,0.4,1.1,0.7
					c-0.6-0.4-0.6-0.4-1.1-0.9c1.8,0.1,3.4,0.2,5,0.4c-0.1-0.4-0.1-0.7-0.5-1.3l0.6,0.5c1-0.6,2.4,0.1,3.3,0
					c-0.3,0.4,0.2,0.7,0.7,0.9l-0.1-0.4c1.8,0.9,4.1,1.4,5.7,2c0.2,0.1,0.4,0.3,0.4,0.5l1.7,0.2c-0.3,0.5,1.2,1,0.3,1.1
					c1.4-0.3,2.5,0.6,3.9,0.2c4.2,1.3,8.7,2.1,13.3,2.3l0-0.2c1.6,0,3.2-0.8,5,0c1.5-0.5,3.5-0.5,4.3-1.6c1.5,0.2,2.3-0.3,3.8-0.4
					c-0.2-0.7,1.6-0.5,1-1.1c-0.8-1.1-1-0.3-1.7-1.2l0,0.2c-3.6-1.8-7.3-3.2-11-4.5c-2.7-0.2-5.3-1.4-8-2c-2.9-0.6-6-1.2-8.6-1.6
					c-0.6,0-0.9-0.7-1.2-1.1c-2.3-0.5-5-1.8-7.6-2.4c0,0,0.1,0,0.1,0.1c-1.3-0.4-2.1-1.4-3.4-1.8c-0.1,0.2-0.3,0.1-0.4,0.1
					c0.1-0.8-8.1-1.5-8.4-2.2c-0.1,0-0.3,0-0.4-0.1c-2.5-1.5-4.6-4.3-6.9-5.2c-0.7,0.1-1.4,0.2-2,0.4c-0.3-0.5-0.6,0.1-1.1-0.2
					c-0.5-2.1-1.5-1.8-1.2-1c-1.1-0.3-2.1-0.9-3-1.2c-0.5-0.1-0.9-0.2-1.4-0.2c-0.4,0-0.5-0.4-0.5-0.8c-1-0.2-0.6-0.5-1.5-1.1
					c0-0.6-2.8-0.3-3-0.6l0.2,0c-1.1-0.6-1.3-2-2.4-2.6c-2.8-1.8-6.3-2.9-9.1-4.4c-0.3,0.6,0.7,0.2,0.4,0.9
					c-1.6-0.9-2.9-2.3-4.6-3.2c-0.2-0.3-0.5-0.7-0.5-1c-0.4-0.5-0.4,0.1-0.8-0.1l0.2-0.5c-0.8,0.1-0.6-1-1.2-1
					c-0.1,0.2-0.3,0.1-0.5,0c0.2-0.5-0.6-0.2-0.3-0.7l0,0c-0.1-0.1-0.2-0.1-0.3-0.2c-0.3,0.1-3,0.6-3.4,0.7l-0.1-0.1
					c-0.3-0.1-0.6,0.2-0.5,0.4l-0.4-0.2l0.1,0l-0.4-0.2c0-0.1,0-0.4,0.2-0.6c-0.3,0.1-0.6,0.1-0.8-0.1c0.4,0.6,1,1.4,1.3,2.3
					c-0.3,0.1-0.7-0.4-1-0.5c-0.2-0.5-0.7-1.1-1.1-1.6c-0.1,0-0.5,0.5-0.6,0.2c0.1-0.4-0.2-0.2-0.4-0.4l-3.4,9.8c0,0,0,0,0,0.1
					l-0.1,0l3.5-10.1c0.3-0.1,0.5,0.1,0.7,0.3c0.2-0.4-0.3-0.6-0.5-0.7l-3.8,11.1c0.1,0,0.1,0.1,0.1,0.1c0.1-0.1,0.6,0.2,1,0.1
					c-0.3,0.5,0.2,0.4,0.3,0.7c0.2,0.1,0.4-0.1,0.4-0.3c0.2-0.5-0.8-0.5-0.4-1c0,0.3,0.5,0.3,0.7,0.3c0.1-0.3-0.1-0.3,0.1-0.5
					c0.2,0.1,0.6-0.2,0.7,0.2c-0.1,0.1-0.2,0-0.2,0c0.3,0.1-2.3,1.5-1.8,1.5c-0.1-0.3,2.4-1.3,2.1-1.4c-0.2-0.2,0.3-0.5,0.1-0.7
					l-0.3,0.3c-0.3-0.2-0.3-0.7-0.1-0.9c0.5,0.2-1.9,1.7-1.4,1.5l-0.1-0.2c0.2-0.2,0.7-0.2,0.9,0.2c0.1-0.3,0.3-0.3,0.6-0.4l0.1,0.1
					c0.2-0.1,0.5,0,0.5-0.4c-1.2-0.2,1.5-2.8,0.4-3.3c0.3,0.8-0.3,0.6-0.9,0.6c0-0.2-0.1-0.6-0.5-0.9c-0.3,0-0.2,0.2-0.3,0.3
					c-0.1-0.2-0.5-0.4-0.3-0.7c-0.1,0.1-0.2,0.1-0.3,0l0.6-1.7c0.1,0.1,0.1,0.4,0.3,0.4c0.3-0.1,0.1-0.2,0.3-0.3
					c0.4,0.2,0.8,0.5,1.1,0.7c0,0.4,0.1,1.1-0.4,1.4c-0.5-0.3,0.6-0.7-0.1-0.8c-0.1,0.8-0.6-0.1-1,0.4c0,0.4,0.4,0.6,0.8,0.6l0-0.1
					c0.3,0,0.9,0.2,1.1,0.7c-0.2,0.2-0.1,0.5-0.4,0.4l0.4,0.2c0.1-0.1,0.2-0.1,0.1-0.2c0.3-0.1,0.4,0.1,0.5,0.3
					c-0.1,0.3,2.5-0.1,2.4,0c0.3,0.1,0.2,0.5,0.6,0.4c0.1-0.2-3-0.4-2.6-0.3c0.1,0.4,3.7,0.2,3.7,0.7c0.2,0.1,0.5,0.1,0.6-0.1
					c0.3,0.3-0.3,0.4-0.2,0.8c0,0,0-0.1,0.1-0.1l0.1,0.4c0.7-0.2,1.3,0.7,2.1,0.5c-0.3,0.2-0.7,0.6-1.2,0.7l0-0.2
					c-0.1,0.1-0.4,0-0.5,0.3c0.3,0.3,0.6,0.4,1.1,0.3c0,0.1,0.1,0.2,0.1,0.3c0,0,0-0.1,0-0.1c0,0.2,0,0.2-0.1,0.3c0,0,0,0-0.1,0
					c-0.1,0.9,1.6,0.1,2,0.8c0.2,0,0.1-0.1,0.4-0.2c0.5,0.6,0.8,1,1.4,1.5c0.4-0.2,0.4-0.3,0.3-0.8l0.5,0.3
					c-0.9,0.7,0.6,1.3-0.4,1.9c0.1,0.3,0.3,0.5,0.7,0.4c0.1-0.2,0.3-0.5,0.7-0.4c0.4,0.5,0.3,0.4,0.6,0.8c0,0.3-0.2,0.4-0.3,0.6
					c0.8-0.1,0.3,0.9,0.9,1.1c0.4,0.1,1.2,0.4,1.4-0.1C75.5,160.4,75.3,160.7,75.1,161.1z"/>
			</g>
		</g>
	</g>
	<g>
		<g>
			<g>
				<path d="M175.4,238.4l0.3,0.9c-1.3-2.7-2.5-5.6-3.6-8.4c1.2,6.8,3,14.7,8.8,17.7c-1.7,1.4,0.2,7.7,0.7,7.6
					c0.9,1.1,1.8,2.2,2.6,3.3c-0.5-0.8-1.1-1.6-1.7-2.3c0.6,0.8,1.1,1.6,1.7,2.3c5.2,7.2,8.5,16.1,11.8,25.4
					c1.9,5.1,7.7,18.8,9.5,24.2c0.3,0.8,0.6,1.5,0.9,2.3c-0.4-1.3-0.4-1.3-0.8-2.6c2,2.9,3.8,5.4,5.5,8c0-0.6,0.3-0.8,0.1-2.1
					l0.5,1.5c1.4,0.9,2.8,3.8,3.8,5c-0.6-0.1-0.1,1,0.3,2l0.1-0.5c1.6,3.7,4.1,7.6,5.7,10.8c0.2,0.4,0.2,0.9,0.2,1.1l1.9,2.9
					c-0.7,0.1,0.9,2.8-0.2,1.5c0.9,1,1.6,2.1,2.3,3.2c0.7,1.1,1.4,2.1,2.3,3c4.4,7.6,9.6,15.4,15.5,22.3l0.1-0.3
					c2.1,2.4,4.7,4,6.6,7.3c2.3,1.7,5,4.5,6.6,4.6c2.1,2.4,3.4,2.9,5.5,5.1c0-1,2.5,1.8,1.9,0.3c-0.6-2.1-1.2-1.7-1.7-3.5l-0.1,0.2
					c-2.2-3.4-4.2-6.8-6.4-10.1c-2.1-3.4-4.2-6.8-6.3-10.2c-0.9-1-1.7-2.1-2.5-3.3c-0.8-1.2-1.5-2.4-2.3-3.6
					c-1.5-2.4-2.9-4.9-4.4-7.3c-3.3-5.1-6.8-10.6-9.7-15c-0.8-1-0.7-2.1-0.9-3.1c-2.5-4.1-5-9.7-7.7-14.4c0,0.1,0.1,0.2,0.1,0.2
					c-1.4-2.6-1.7-4.8-3-7.3c-0.2,0.1-0.4-0.3-0.5-0.4c0.5-0.8-8.7-14.3-8.6-15.4c-0.2-0.3-0.3-0.5-0.5-0.8
					c-2.2-5.6-3.2-11.9-5.5-16.5c-0.8-0.8-1.7-1.8-2.5-2.5c0-1-0.8-0.8-1.1-1.9c0.4-3.2-0.9-4.4-0.9-2.9c-1.2-2-2-4.1-2.9-6
					c-0.5-0.8-1-1.6-1.6-2.4c-0.5-0.7-0.4-1.2-0.2-1.7c-1.1-1.8-0.5-1.4-1.2-3.4c0.3-0.7-3.1-4.5-3.2-5.2l0.2,0.3
					c-1-2.3-0.6-4.3-1.6-6.6c-2.5-6.3-6.1-12.9-8.6-18.7c-0.6,0.2,0.7,1.2,0,1.6c-1.5-3.4-2.4-7.1-3.9-10.6
					c-0.1-0.7-0.2-1.6-0.2-1.9c-0.3-1.2-0.6-0.5-0.9-1.3l0.5-0.3c-1-1-0.3-2-1-3c-0.2,0-0.5-0.3-0.6-0.7c0.5-0.3-0.6-1.2-0.1-1.4
					l0,0c-0.1-0.2-0.2-0.4-0.3-0.7c-0.4-0.4-3.9-3.8-4.3-4.1l0-0.3c-0.3-0.6-0.8-0.7-0.8-0.3l-0.3-0.8l0.1,0.1l-0.3-0.8
					c0-0.2,0.2-0.4,0.5-0.3c-0.4-0.3-0.7-0.8-0.8-1.3c0.3,1.4,0.5,3.1,0.6,4.6c-0.4-0.4-0.6-1.5-0.9-2c0-0.8-0.3-2.4-0.6-3.5
					c-0.1-0.2-0.8-0.1-0.8-0.7c0.3-0.5-0.3-0.6-0.2-1.2c0.5,0.4,0.6,0.9,0.8,1.5c0.4-0.3-0.3-1.4-0.3-1.9c-0.2-0.1-0.6-1.2-1-1.7
					c0.6,0,0.1-0.6,0.1-1.1c-0.1-0.4-0.5-0.6-0.5-0.4c-0.6,0.1,0.5,1.8-0.3,1.5c0.2-0.3-0.3-1.1-0.6-1.5c-0.3,0.1-0.1,0.4-0.5,0.2
					c-0.2-0.5-0.8-0.9-0.6-1.3c0.1,0.1,0.2,0.3,0.2,0.4c-0.3-0.7,3.5,2.6,2.9,1.8c-0.1,0.3-3.4-2.9-3.2-2.4c0.1,0.5-0.6,0-0.5,0.4
					l0.6,0.3c0.2,0.6-0.2,1.1-0.5,1c-0.4-0.9,3.2,1.7,2.5,1.1l0,0.4c-0.3-0.2-0.9-1.1-0.8-1.6c-0.3,0.1-0.6-0.3-0.9-0.6l0-0.2
					c-0.3-0.3-0.5-0.9-0.8-0.5c1.2,2.3-3.5-0.1-2.6,2.1c0.2-1.2,0.8,0,1.3,0.9c-0.2,0.2-0.3,0.8-0.1,1.5c0.3,0.6,0.4,0.2,0.6,0.3
					c0,0.4,0.2,1.1-0.1,1.2c0.6,0.3,0.1,0.9,0.5,1.4c0.4,0.4,0.1-0.1,0.5,0.2c0.3,0.8,0.8,1.8,1,2.5c-0.2,0.4-0.4,1.3-1.1,1
					c-0.5-1.2,1,0.1,0.3-1.1c-0.4,0.8-0.7-1-1.3-0.9c-0.1,0.5,0.2,1.3,0.6,1.9l0-0.2c0.4,0.5,1,1.6,1,2.4c-0.3,0-0.4,0.3-0.6-0.1
					l0.3,0.8c0.1,0.1,0.3,0.1,0.2-0.1c0.4,0.3,0.4,0.7,0.4,1c-0.2,0.2,3.1,3.6,2.8,3.5c0.3,0.6,0,0.9,0.5,1.3c0.2,0-3.4-4.9-3-4.2
					c0,0.6,4.3,5.7,4,6.3c0.2,0.4,0.5,0.9,0.7,0.7c0.2,0.8-0.6,0-0.6,0.6c0,0,0.1-0.1,0.2,0.1l-0.1,0.6c0.9,0.9,1.2,2.7,2.2,3.6
					c-0.4-0.2-1.1-0.3-1.7-0.9l0.1-0.2c-0.1-0.1-0.5-0.6-0.8-0.5c0.2,0.8,0.5,1.3,1.1,2c0,0.2,0,0.4,0,0.5c0,0,0.1,0,0.1-0.1
					c0,0.3-0.1,0.3-0.2,0.3c0,0-0.1,0-0.1,0c-0.5,0.8,1.8,2.5,2,3.9c0.3,0.3,0.1,0,0.5,0.4c0.3,1.4,0.5,2.4,1,3.9
					c0.5,0.3,0.7,0.2,0.8-0.4l0.4,1.1c-1.3-0.5,0.1,2.3-1.3,1.7c-0.1,0.4,0.2,1,0.6,1.5c0.2,0,0.6-0.1,1,0.6
					c0.2,1.1,0.2,0.9,0.3,1.8c-0.2,0.3-0.4,0.1-0.7,0.2c1,1.1-0.1,1.4,0.5,2.6c0.4,0.7,1.2,2.2,1.7,2
					C176.2,238.1,175.8,238.3,175.4,238.4z"/>
			</g>
		</g>
	</g>
	<g>
		<g>
			<g>
				<path d="M292.2,336.3l0.5-0.8c-1.5,2.8-3.3,5.6-5.1,8.4c2.6-2.7,5.2-5.6,7.2-8.8c1.9-3.2,3-6.6,2.6-9.9c1.1,0.2,2.7-1.1,3.9-2.5
					c1.2-1.4,2.1-2.9,2-3.1c0.3-1.5,0.7-2.9,1.1-4.3c-0.3,1-0.6,1.9-0.9,2.9c0.3-1,0.6-2,0.9-2.9c0.7-2.3,1.6-4.5,2.5-6.7
					c0.9-2.2,2-4.4,3.2-6.7c2.3-4.4,4.9-8.8,7.6-13.3c2.9-5,10.2-18.9,13.4-23.9c0.4-0.7,0.9-1.5,1.3-2.2c-0.8,1.2-0.8,1.2-1.6,2.4
					c1.1-3.5,2-6.6,3.1-9.6c-0.5,0.4-0.8,0.3-1.8,1.3l0.9-1.3c-0.1-1.7,1.4-4.7,1.8-6.3c0.3,0.5,0.9-0.6,1.5-1.5l-0.5,0.3
					c2.1-3.7,4-8.1,5.8-11.4c0.2-0.5,0.6-0.7,0.8-0.9c0.4-1.1,0.9-2.2,1.4-3.3c0.4,0.5,1.9-2.4,1.4-0.7c0.6-2.7,2.3-4.9,2.9-7.5
					c1.1-2,2.2-4.1,3.3-6.1c1.1-2.1,2.2-4.2,3.3-6.3c1-2.1,2.2-4.3,3.2-6.4c1.1-2.1,2.1-4.3,3.1-6.4l-0.3,0.1c1.3-3.1,2-6.1,4.5-9.3
					c0.4-1.4,1.1-3.1,1.7-4.6c0.3-0.7,0.5-1.4,0.7-2.1c0.2-0.6,0.3-1.2,0.3-1.6c1.2-1.4,2.1-2.4,3.2-3.3c0.6-0.4,1.2-0.9,2.1-1.2
					c0.9-0.3,2.1-0.6,3.7,0c-0.3-0.3-0.1-0.4,0.4-0.3c0.3,0,0.5,0.2,0.9,0.3c0.3,0.1,0.7,0.3,0.9,0.5c0.3,0.2,0.5,0.4,0.8,0.6
					c0.1,0.1,0.2,0.1,0.3,0.2c0.2,0,0.2-0.1,0-0.4c-0.3-0.5-0.6-0.9-0.9-1.3c-0.4-0.4-0.7-0.6-1.1-0.9c-0.7-0.4-1.4-0.7-2.1-0.8
					c-1.3-0.2-2.4-0.2-4.1,0l0.2,0.2c-1.9,0.5-3.3,1.3-4.5,2.1c-1.2,0.9-2.3,1.8-3.3,2.9c-0.3,0.3-0.5,0.6-0.7,0.9l-0.5,0.7l-1,1.3
					l-2,2.6c-2.6,3.5-5.3,7-7.6,10.8c-1.3,2.7-2.9,5.3-4.5,7.9c-1.6,2.7-3.2,5.3-4.6,8c-0.8,1.5-1.5,2.9-2.3,4.4
					c-0.7,1.5-1.4,3-2.2,4.5c-1.4,3-2.7,5.9-3.8,8.5c-0.5,1.3-1.4,1.9-2.2,2.8c-2.1,4.7-5.4,10.4-7.7,15.8c0.1-0.1,0.1-0.2,0.1-0.2
					c-1.3,2.8-2.9,4.6-4.2,7.3c0.2,0.1,0,0.5,0,0.7c-1,0.1-6.3,16.6-7.2,17.4c-0.1,0.3-0.2,0.6-0.3,0.9c-3.1,5.5-7.5,10.7-9.8,15.6
					c-0.2,1.2-0.4,2.6-0.5,3.7c-0.8,0.7-0.2,1.2-0.8,2.2c-2.8,1.9-3,3.7-1.7,2.6c-0.9,2.3-2.1,4.4-3,6.3c-0.3,0.9-0.7,1.9-1,2.8
					c-0.3,0.8-0.7,1.1-1.3,1.3c-0.8,2-0.9,1.3-2.1,3.2c-0.8,0.2-1.8,5.5-2.2,6l0.1-0.4c-1.3,2.3-3.2,3.3-4.4,5.5
					c-1.9,3.1-3.6,6.4-5.4,9.6c-1.8,3.2-3.4,6.4-5.2,9.2c0.5,0.4,0.6-1.3,1.4-1c-2.1,3.3-4.7,6.3-6.8,9.6c-0.5,0.5-1.2,1.1-1.5,1.3
					c-0.9,0.9-0.1,0.8-0.7,1.5l-0.5-0.2c-0.3,1.4-1.6,1.3-2,2.5c0.2,0.2-0.1,0.6-0.3,0.9c-0.5-0.3-0.7,1.2-1.1,0.8l0,0
					c-0.2,0.2-0.2,0.4-0.5,0.6c-0.1,0.5-1.3,5.5-1.3,6.1l-0.2,0.1c-0.4,0.6-0.2,1.1,0.1,0.8l-0.5,0.7l0-0.1l-0.5,0.7
					c-0.1,0.1-0.5,0.1-0.5-0.2c-0.1,0.5-0.3,1.1-0.7,1.4c1.1-0.9,2.5-2.1,3.8-3c-0.1,0.6-1,1.3-1.3,1.9c-0.8,0.4-1.9,1.6-2.9,2.4
					c-0.1,0.2,0.3,0.8-0.3,1.1c-0.5,0-0.4,0.6-0.9,0.8c0.1-0.6,0.5-1,0.9-1.5c-0.5-0.2-1.1,1-1.5,1.3c0,0.3-0.8,1.1-1.1,1.8
					c-0.3-0.6-0.6,0.3-1.1,0.5c-0.3,0.4-0.3,0.7-0.1,0.7c0.4,0.5,1.4-1.4,1.5-0.5c-0.3,0-0.8,0.8-1.1,1.3c0.2,0.2,0.4-0.2,0.4,0.3
					c-0.4,0.4-0.4,1.2-0.9,1.2c0-0.1,0.2-0.3,0.3-0.4c-0.4,0.6,0.6-4.5,0.2-3.6c0.4-0.1-0.9,4.6-0.6,4.2c0.4-0.3,0.3,0.6,0.6,0.3
					l0-0.6c0.5-0.5,1-0.4,1.1-0.1c-0.6,0.9,0-3.7-0.3-2.8l0.3-0.2c-0.1,0.4-0.5,1.4-1,1.5c0.2,0.2,0,0.7-0.1,1.1l-0.1,0.1
					c-0.1,0.5-0.5,0.9,0,0.9c1.5-2.2,1.6,3.2,3.1,1.2c-1.2,0.5-0.4-0.7,0.2-1.7c0.2,0,0.8-0.2,1.4-0.8c0.4-0.6,0-0.5,0-0.7
					c0.3-0.2,0.9-0.8,1.1-0.5c0-0.7,0.7-0.6,1-1.2c0.2-0.6-0.2-0.1-0.1-0.5c0.5-0.7,1.3-1.7,1.7-2.2c0.4,0,1.4-0.4,1.5,0.4
					c-0.8,1.1-0.4-0.9-1.1,0.3c1-0.1-0.5,1.1-0.2,1.7c0.5-0.2,1-0.9,1.4-1.6l-0.2,0.1c0.3-0.6,0.9-1.8,1.6-2.2
					c0.1,0.3,0.5,0.1,0.3,0.6l0.6-0.7c0-0.1,0-0.3-0.2-0.1c0.1-0.5,0.4-0.8,0.7-1c0.3,0.1,1.6-4.7,1.7-4.5c0.3-0.6,0.8-0.5,0.9-1.2
					c-0.2-0.2-2.5,5.8-2.1,5c0.6-0.3,2.8-7,3.4-7.1c0.2-0.4,0.5-0.9,0.2-1c0.6-0.6,0.3,0.5,0.9,0.1c0,0-0.1,0,0-0.2l0.6-0.3
					c0.3-1.3,1.8-2.6,2-4.1c0.1,0.5,0.3,1.2,0.1,2l-0.2,0.1c0,0.2-0.3,0.8,0,0.9c0.6-0.6,0.9-1.2,1.1-2.1c0.1-0.1,0.3-0.2,0.4-0.3
					c0,0-0.1,0-0.1,0c0.3-0.2,0.3-0.1,0.3,0c0,0,0,0,0,0.1c1,0,1.2-3,2.3-4.1c0.1-0.4-0.1-0.1,0-0.7c1.1-1.1,1.8-1.9,2.8-3.2
					c-0.1-0.6-0.2-0.7-0.8-0.4l0.7-1c0.3,1.4,1.9-1.5,2.2,0c0.4-0.2,0.8-0.8,1-1.5c-0.2-0.2-0.5-0.5,0-1.2c0.9-0.9,0.6-0.7,1.4-1.4
					c0.4,0,0.3,0.3,0.6,0.4c0.4-1.5,1.2-0.8,1.9-2.1c0.4-0.8,1.2-2.4,0.7-2.7C291.5,335.8,291.8,336,292.2,336.3z"/>
			</g>
		</g>
	</g>
	<g>
		<g>
			<g>
				<path d="M302.9,381.4l0.9,0c-2.9,0.3-6,0.4-9.1,0.5c6.8,1.2,14.8,2.1,19.5-2.4c0.8,2.1,7.3,2.4,7.4,1.9c1.3-0.5,2.6-1,4-1.4
					c-0.9,0.2-1.8,0.5-2.7,0.8c0.9-0.3,1.8-0.6,2.7-0.8c8.5-2.5,17.9-2.7,27.7-2.9c5.4-0.1,20.1-1.1,25.6-1.1c0.8,0,1.6,0,2.4,0
					c-1.4-0.1-1.4-0.1-2.7-0.1c3.3-0.9,6.3-1.7,9.2-2.4c-0.5-0.3-0.7-0.5-1.9-0.8l1.5,0.1c1.3-1,4.5-1.3,5.9-1.8
					c-0.3,0.5,0.9,0.5,1.9,0.4l-0.4-0.3c3.9-0.2,8.4-1,11.8-1.1c0.5,0,0.8,0.1,1.1,0.3c1.1-0.2,2.2-0.3,3.3-0.5
					c-0.2,0.6,2.7,0.5,1.2,0.9c2.4-0.8,4.9-0.3,7.2-1c4.1,0.1,8.3,0.6,12.8,1c4.4,0.4,9.1,0.8,13.7,0.7l-0.2-0.2
					c3.3-0.1,6-1.3,9.9-1c2.7-0.9,6.5-1.6,7.5-2.9c3.1-0.4,4.3-1.2,7.3-1.8c-0.8-0.6,2.9-1,1.3-1.4c-2.1-0.7-2.1,0.1-3.9-0.5
					l0.1,0.2c-8-0.2-15.7-0.3-23.1-1.4c-5.1,0-10.8-1.6-16.7-2.2c-3.2-0.3-6.6-0.4-9.9-0.3c-3.2,0.1-6.3,0.4-9,0.8
					c-1.3,0.2-2.2-0.2-3.3-0.5c-4.9,0.6-11.1,1-16.4,1.9c0.1,0,0.2,0,0.3,0c-2.9,0.4-5.1,0-7.9,0.3c0,0.2-0.4,0.2-0.6,0.3
					c-0.6-0.8-16.3,3.4-17.3,3c-0.3,0.1-0.6,0.1-0.9,0.2c-5.9,0.2-12.2-0.8-17.3-0.2c-1.1,0.5-2.3,1-3.1,1.5c-0.9-0.3-1,0.4-2.1,0.5
					c-2.9-1.4-4.4-0.6-3-0.1c-2.2,0.5-4.5,0.5-6.5,0.8c-0.9,0.2-1.8,0.4-2.8,0.7c-0.8,0.2-1.3,0-1.7-0.3c-2,0.4-1.5,0-3.6,0
					c-0.6-0.5-5.3,1.5-5.9,1.4l0.3-0.1c-2.5,0.1-4.2-0.8-6.7-0.6c-6.8,0.2-14,1.4-20.3,1.8c0,0.6,1.4-0.3,1.5,0.5
					c-3.7,0.3-7.4-0.1-11.2,0.1c-0.7-0.1-1.5-0.3-1.9-0.5c-1.2-0.1-0.7,0.4-1.5,0.4l-0.2-0.5c-1.2,0.6-1.9-0.4-3.1-0.1
					c0,0.2-0.5,0.3-0.9,0.3c-0.1-0.6-1.3,0.2-1.3-0.4l0,0c-0.3,0-0.4,0.1-0.8,0c-0.5,0.3-4.8,2.3-5.3,2.6l-0.2-0.1
					c-0.7,0.1-0.9,0.6-0.5,0.6l-0.8,0.1l0.1-0.1l-0.8,0c-0.2,0-0.4-0.3-0.1-0.6c-0.5,0.3-1,0.4-1.5,0.4c1.3,0.2,3,0.6,4.5,1.1
					c-0.5,0.3-1.6,0-2.2,0.2c-0.8-0.3-2.3-0.5-3.5-0.7c-0.3,0.1-0.4,0.7-1,0.5c-0.3-0.4-0.7,0.1-1.2-0.2c0.5-0.3,1.1-0.2,1.7-0.3
					c-0.1-0.5-1.4-0.2-1.8-0.3l-2-0.4l-2.2,2.8c0,0-0.1,0.1-0.1,0.1c-0.1,0.2-0.4,0.7-0.7,1.3c-0.3,0.6-0.6,1.5-0.6,2.4
					c-0.2,1.8,0.4,3.5,1,4.5c-0.5-0.4-0.3,0.2,0,0.8c0.4,0.7,1,1.4,1.5,2c1.1,1.1,2.3,1.3,1.8,0.8c0.3-0.1-1-0.9-1.7-1.9
					c-0.8-0.9-1.2-1.9-0.4-1.2c0,0.3,0.5,0.9,1.2,1.5c0.7,0.6,1.6,1.1,2.5,1.4c0.1-0.3-1-0.6,0.1-0.5c0.4,0.2,0.9,0.3,1.4,0.3
					c0.5,0.1,1,0,1.5-0.1c1-0.1,1.8-0.5,2.4-0.7c-0.2,0.1-0.4,0.3-0.8,0.4c-0.3,0.1-0.7,0.2-1.1,0.3c0.4-0.1,0.4-0.1,0.2,0.1
					c-0.2,0.1-0.7,0.3-1.3,0.4c-0.3,0.1-0.7,0.1-1.1,0.1c-0.4,0-0.8,0-1.2-0.1c-0.4-0.1-0.8-0.1-1.2-0.3c-0.4-0.1-0.8-0.3-1.1-0.4
					c-1.4-0.6-2.5-1.6-3.1-2.4c-0.6-0.8-0.9-1.2-0.5-0.4c0-0.1,0.1,0,0.3,0.3c0.2,0.2,0.6,0.6,1,1c0.9,0.8,2.1,1.7,3.8,2.1
					c0.4,0.1,0.9,0.2,1.3,0.2c0.5,0,0.9,0.1,1.4,0c0.5-0.1,0.9-0.1,1.3-0.2c0.4-0.1,0.8-0.3,1.1-0.4c0.6-0.3,1-0.7,1.3-0.9
					c0.1-0.1,0.1-0.1,0.1-0.1c0,0,0,0,0,0c-0.8,0.4-0.6,0.1-0.4-0.2c0.1-0.1,0.2-0.3,0.1-0.3c0-0.1-0.1,0-0.5,0.2
					c-0.4,0.4-1,0.8-1.6,1c-0.6,0.1-1.1,0-1.5,0c-0.4-0.1-0.6-0.2-0.8-0.3c-0.3-0.2-0.3-0.4,0-0.5c0.8,0.1,0.6,0.2-0.1,0.3
					c-0.4,0-0.8,0-1.3,0c-0.5-0.1-1-0.2-1.5-0.4c-2-0.7-3.4-2.8-2.6-1.7c-0.2-0.3-0.3-0.7-0.4-1.1c0.3,0.5,0.9,1.3,1.6,2
					c0.7,0.7,1.4,1.3,1.9,1.7c0.2-0.3,1.5,0.4,3.2,0.3c0.2,0,0.4,0,0.6,0c0.8-0.1,1.9-0.5,2.4-0.8c0.6-0.4,0.7-0.6,0.2-0.5
					c-1,0.6-1.9,0.7-2.3,0.7c-0.5,0-0.7-0.2-0.7-0.3c0-0.3,0.7-0.7,1.1-1.2c0.5-0.5,0.7-1.2,0.5-1.4c-0.2-0.3-0.6-0.2-1.5-0.1
					c0.4,0.2,0.7,0.2,0.7,0.3c0,0.1-0.2,0.2-0.5,0.3c-0.7,0.2-1.9-0.1-2.6-0.6c0-0.3-0.4-1-0.7-2c-0.4-0.9-0.4-0.5-0.6-0.7
					c0-0.2,0-0.4,0.1-0.6c0.1-0.2,0.1-0.4,0.2-0.6c0.2-0.4,0.4-0.5,0.5-0.4c0-0.2,0.1-0.4,0.1-0.5l0.2-0.3l0.5-0.1
					c0.3,0,0.7,0.3,1.1,0.2c0.5-0.2-0.1-0.2,0.3-0.4c0.8,0,2-0.1,2.6-0.1c0.3,0.3,1.1,0.8,0.6,1.4c-1.2,0.1,0.4-0.9-0.9-0.6
					c0.6,0.7-1.1,0.3-1.3,0.9c0.4,0.3,1.3,0.2,2,0.1l-0.1-0.1c0.6-0.2,1.8-0.4,2.5-0.1c-0.1,0.3,0.2,0.5-0.3,0.6l0.9,0
					c0.1-0.1,0.2-0.2,0-0.2c0.4-0.2,0.8-0.2,1.1,0c0.1,0.3,4.4-1.6,4.3-1.4c0.6-0.1,0.8,0.3,1.4,0c0-0.2-5.7,1.5-4.9,1.4
					c0.6,0.3,6.8-2.1,7.2-1.6c0.4-0.1,1-0.2,0.9-0.5c0.8,0.1-0.2,0.6,0.4,0.8c0,0-0.1-0.1,0.1-0.1l0.6,0.3c1.1-0.6,2.9-0.2,4.1-0.9
					c-0.3,0.3-0.7,0.9-1.5,1.3l-0.2-0.1c-0.1,0.1-0.8,0.3-0.7,0.5c0.8,0.1,1.4,0,2.2-0.4c0.2,0.1,0.3,0.1,0.5,0.2c0,0,0-0.1,0-0.1
					c0.3,0.2,0.3,0.2,0.2,0.3c0,0,0,0,0,0.1c0.6,0.8,2.9-0.8,4.4-0.5c0.4-0.2,0-0.1,0.5-0.4c1.4,0.2,2.5,0.3,4,0.4
					c0.4-0.4,0.5-0.6-0.1-0.9l1.1,0c-0.9,1.1,2.2,0.7,1.2,1.8c0.3,0.2,1,0.2,1.6-0.1c0-0.2,0.1-0.6,0.9-0.7c1.1,0.2,0.9,0.1,1.8,0.3
					c0.2,0.3-0.1,0.4,0,0.7c1.4-0.5,1.3,0.6,2.6,0.4c0.8-0.2,2.5-0.4,2.4-0.9C302.9,380.5,302.9,380.9,302.9,381.4z"/>
			</g>
		</g>
	</g>
	<g>
		<g>
			<g>
				<path d="M102.1,377.7l0.9,0.1c-2.9-0.1-6-0.5-9-0.9c6.4,2.4,14.3,4.3,19.4,0.3c0.5,2.2,7,3,7.2,2.5c1.3-0.4,2.7-0.8,4-1.1
					c-0.9,0.2-1.9,0.4-2.8,0.6c0.9-0.2,1.9-0.5,2.8-0.6c4.3-1.1,8.6-1.7,13-1.8c4.3-0.1,8.7,0.3,12.7,1.3c2.3,0.5,6.6,1.7,11.1,3.2
					c4.7,1.6,9.5,3.3,12.1,4.2c0.8,0.3,1.6,0.5,2.4,0.8c-1.4-0.5-1.3-0.5-2.7-1c3.6,0.3,6.9,0.2,10,0.4c-0.5-0.4-0.6-0.7-1.7-1.3
					l1.5,0.5c1.5-0.7,4.7-0.3,6.2-0.6c-0.4,0.4,0.8,0.6,1.9,0.7l-0.4-0.3c2,0.2,4.1,0.3,6.2,0.2c2.1,0,4.1-0.1,5.8-0.1
					c0.5,0,0.9,0.2,1.1,0.3c1.1-0.1,2.2-0.3,3.3-0.4c-0.2,0.6,2.8,0.4,1.2,0.9c2.5-0.8,5-0.5,7.3-1.3c8.4-0.4,17-1.3,25.5-1.8
					l-0.2-0.2c1.5-0.1,2.9-0.4,4.4-0.5c1.5-0.1,3.1-0.1,4.9,0.4c1.3-0.1,2.9-0.1,4.4-0.2c0.7-0.1,1.4-0.1,2-0.1
					c0.6-0.1,1.1-0.2,1.4-0.4c1.5,0.4,2.6,0.4,3.7,0.6c1.1,0.2,2.2,0.3,3.7,0.8c-0.3-0.4,0.5-0.3,1.2-0.3c0.7,0.1,1.2,0.2,0.7-0.4
					c-1.6-1.6-2-0.9-3.4-2.3l0,0.2c-7.6-3.9-16-5.8-24.3-6.5c-5.6,0.3-11.4-0.1-17,0.3c-6,0.5-12.3,1.2-17.2,1.8
					c-1.2,0.2-2-0.3-3.1-0.6c-1.1,0.1-2.3,0.1-3.6,0.1c-1.2,0-2.5,0-3.9,0c-2.6-0.1-5.3-0.2-7.8-0.3c0.1,0,0.2,0,0.2,0
					c-2.7-0.1-4.5-1.1-7-1.4c0,0.2-0.4,0.1-0.6,0.2c-0.1-0.4-3.8-0.8-7.8-1.4c-4-0.6-8.2-1.3-8.6-1.7c-0.3,0-0.6-0.1-0.9-0.1
					c-2.8-1-5.6-2.2-8.6-3.1c-2.9-1-5.9-1.6-8.6-1.7c-1.2,0.4-2.5,0.7-3.4,1.1c-0.9-0.4-1.1,0.3-2.2,0.3c-2.8-1.6-4.4-0.8-3-0.3
					c-2.3,0.3-4.5,0.3-6.4,0.5c-0.9,0.2-1.8,0.4-2.7,0.6c-0.8,0.2-1.2,0-1.6-0.4c-1.9,0.4-1.4-0.1-3.4-0.2c-0.3-0.3-1.5,0-2.8,0.3
					c-1.3,0.3-2.6,0.7-2.9,0.6l0.3-0.1c-2.4,0-3.9-1.2-6.2-1.3c-6.4-0.5-13.4-0.4-19.3-1.1c-0.1,0.6,1.3,0,1.3,0.8
					c-3.5-0.4-7-1.5-10.5-2c-0.6-0.2-1.4-0.6-1.6-0.9c-1.1-0.4-0.7,0.2-1.5,0l0-0.6c-1.3,0.3-1.7-0.8-2.9-0.7
					c-0.1,0.2-0.5,0.2-0.9,0.1c0.1-0.6-1.3-0.1-1.1-0.6l0,0c-0.2,0-0.4,0-0.7-0.2c-0.5,0.2-5,1.2-5.5,1.4l-0.2-0.1
					c-0.7-0.1-1,0.3-0.6,0.5l-0.8-0.1l0.1,0l-0.8-0.1c-0.1-0.1-0.3-0.4,0-0.6c-0.5,0.1-1,0.2-1.4,0c1.2,0.5,2.7,1.2,4,2
					c-0.6,0.1-1.5-0.3-2.1-0.3c-0.7-0.5-2.1-1-3.1-1.4c-0.3,0-0.5,0.6-1,0.3c-0.2-0.5-0.6-0.1-1.1-0.5c0.6-0.2,1.1,0,1.6,0.1
					c0-0.5-1.3-0.5-1.7-0.8c-0.2,0.1-1.2-0.2-1.9-0.1c0.4-0.5-0.5-0.4-0.8-0.7c-0.4-0.1-0.7,0-0.6,0.3c-0.2,0.5,1.7,0.6,1,1.1
					c-0.1-0.3-1-0.3-1.5-0.4c0,0.3,0.3,0.3-0.1,0.5c-0.5-0.1-1.1,0.2-1.4-0.2c0.1-0.1,0.3,0,0.5,0c-0.7-0.1,4-1.5,3-1.4
					c0.2,0.3-4.1,1.3-3.7,1.4c0.4,0.2-0.4,0.5,0,0.7l0.5-0.3c0.6,0.2,0.7,0.8,0.5,0.9c-1-0.2,3.1-1.7,2.2-1.5l0.3,0.2
					c-0.4,0.2-1.4,0.2-1.7-0.2c0,0.3-0.5,0.3-0.9,0.4l-0.1-0.1c-0.4,0.1-1-0.1-0.8,0.4c2.4,0.3-2,2.9,0.3,3.3
					c-0.9-0.8,0.4-0.6,1.5-0.6c0.1,0.2,0.5,0.6,1.2,0.9c0.6,0,0.4-0.2,0.6-0.3c0.3,0.2,1,0.4,0.9,0.8c0.6-0.4,0.8,0.4,1.4,0.3
					c0.6-0.1,0-0.2,0.4-0.3c0.8,0.1,1.9,0.4,2.5,0.5c0.2,0.4,0.9,1,0.3,1.5c-1.2-0.2,0.6-0.8-0.7-0.8c0.4,0.8-1.1,0.1-1.4,0.6
					c0.4,0.4,1.2,0.5,1.8,0.5l-0.1-0.1c0.6,0,1.8,0,2.4,0.5c-0.2,0.2,0.1,0.5-0.4,0.5l0.8,0.2c0.1-0.1,0.2-0.1,0-0.2
					c0.4-0.2,0.8,0,1.1,0.2c0.1,0.3,4.5-0.6,4.4-0.5c0.6,0.1,0.7,0.5,1.3,0.3c0.1-0.2-5.8,0.3-5,0.3c0.5,0.4,6.9-0.6,7.2,0
					c0.4,0,1,0,0.9-0.3c0.7,0.2-0.3,0.5,0.2,0.8c0,0,0-0.1,0.1-0.1l0.5,0.4c1.2-0.3,2.8,0.5,4.1,0c-0.4,0.3-0.8,0.8-1.6,1l-0.1-0.2
					c-0.1,0.1-0.8,0.1-0.8,0.4c0.7,0.3,1.4,0.3,2.2,0.1c0.1,0.1,0.3,0.2,0.4,0.3c0,0,0-0.1,0-0.1c0.2,0.2,0.2,0.2,0.1,0.3
					c0,0,0,0-0.1,0.1c0.4,0.9,3-0.2,4.3,0.3c0.4-0.1,0.1-0.1,0.6-0.3c1.4,0.5,2.3,0.8,3.7,1.1c0.5-0.3,0.5-0.5,0-0.9l1.1,0.2
					c-1.1,0.9,2,1.1,0.8,1.9c0.3,0.2,1,0.3,1.6,0.2c0.1-0.2,0.2-0.6,1-0.6c1.1,0.4,0.8,0.3,1.7,0.6c0.2,0.3-0.1,0.4-0.1,0.7
					c1.4-0.3,1.2,0.8,2.5,0.8c0.8,0,2.4,0,2.5-0.6C102.3,376.8,102.3,377.2,102.1,377.7z"/>
			</g>
		</g>
	</g>
	<g>
		<g>
			<g>
				<path d="M97.7,399.8l0.8,0.6c-2.8-1.6-5.6-3.5-8.3-5.4c5.1,5.4,11.8,11.1,18.5,10.4c-0.5,2.2,5.1,6.4,5.4,6
					c1.4,0.4,2.9,0.8,4.3,1.3c-1-0.4-1.9-0.7-2.9-1c1,0.3,1.9,0.6,2.9,1c8.9,3,17.4,8.5,26.1,14.3c4.9,3.1,18.4,11.1,23.3,14.5
					c0.7,0.5,1.4,0.9,2.2,1.4c-1.2-0.9-1.2-0.9-2.3-1.7c3.4,1.2,6.6,2.3,9.5,3.6c-0.3-0.5-0.3-0.8-1.2-1.8l1.3,1
					c1.7-0.1,4.7,1.6,6.3,2.1c-0.5,0.2,0.5,0.9,1.5,1.5l-0.2-0.5c3.6,2.2,8.1,4.2,11.3,6.1c0.5,0.3,0.7,0.6,0.9,0.8l3.3,1.4
					c-0.5,0.4,2.4,1.9,0.7,1.4c2.7,0.7,4.9,2.4,7.5,3c8.1,4.4,16.9,8.7,25.8,12.4l-0.1-0.3c3.1,1.2,6.3,1.6,9.6,3.9
					c2.9,0.7,6.7,2.3,8.4,1.7c3,1.5,4.5,1.5,7.5,2.8c-0.4-1,3.2,0.9,2-0.4c-1.5-1.8-1.9-1.2-3.2-2.7l-0.1,0.2
					c-7.1-5-14.4-9.6-21.8-14.1c-5.4-2.3-10.7-5.8-16-8.5c-5.8-2.9-12.2-6-17.3-8.2c-1.3-0.5-1.8-1.4-2.7-2.2
					c-4.6-2.2-10.3-5.6-15.5-8.1c0.1,0.1,0.2,0.1,0.2,0.2c-2.7-1.4-4.5-3.1-7.1-4.4c-0.1,0.2-0.5,0-0.7-0.1c0-1-16.4-7-17-7.9
					c-0.3-0.1-0.6-0.2-0.9-0.4c-5.4-3.4-10.3-8-15.2-10.5c-1.2-0.2-2.6-0.6-3.7-0.6c-0.7-0.8-1.2-0.3-2.1-0.9
					c-1.8-2.9-3.6-3.1-2.6-1.9c-2.2-1-4.3-2.3-6.2-3.3c-0.9-0.4-1.9-0.7-2.8-1.1c-0.8-0.3-1.1-0.7-1.3-1.3c-2-0.8-1.3-0.9-3.2-2.2
					c-0.2-0.8-5.5-1.9-6-2.4l0.4,0.1c-2.3-1.4-3.2-3.2-5.5-4.5c-6-3.9-12.9-7.5-18.3-11.2c-0.4,0.5,1.3,0.7,0.9,1.4
					c-3.2-2.2-6-4.9-9.1-7.3c-0.5-0.5-1-1.3-1.1-1.6c-0.9-0.9-0.8-0.2-1.4-0.8l0.2-0.5c-1.3-0.4-1.2-1.6-2.3-2.2
					c-0.2,0.1-0.6-0.1-0.9-0.4c0.3-0.5-1.1-0.8-0.7-1.2l0,0c-0.2-0.2-0.4-0.3-0.6-0.5c-0.5-0.1-5.2-1.8-5.7-2l-0.1-0.2
					c-0.5-0.4-1.1-0.3-0.8,0l-0.6-0.6l0.1,0l-0.6-0.6c-0.1-0.1,0-0.5,0.3-0.5c-0.5-0.2-1-0.4-1.3-0.8c0.8,1.2,1.7,2.7,2.4,4.1
					c-0.6-0.2-1.2-1.2-1.7-1.5c-0.3-0.8-1.3-2.1-2-3.1c-0.2-0.2-0.8,0.2-1-0.4c0.1-0.5-0.5-0.5-0.6-1c0.6,0.2,0.9,0.7,1.3,1.1
					c0.3-0.5-0.8-1.2-1-1.7c-0.3,0-1-0.9-1.6-1.3c0.6-0.2-0.2-0.6-0.3-1.1c-0.3-0.4-0.6-0.4-0.6-0.2c-0.5,0.3,1.1,1.6,0.2,1.5
					c0.1-0.3-0.7-0.9-1-1.2c-0.2,0.2,0.1,0.4-0.4,0.4c-0.3-0.4-1-0.6-1-1.1c0.1,0,0.3,0.2,0.4,0.3c-0.5-0.5,4.2,1.4,3.4,0.8
					c0,0.4-4.2-1.6-3.9-1.3c0.2,0.4-0.6,0.2-0.4,0.6l0.6,0.1c0.4,0.5,0.2,1.1-0.1,1.1c-0.7-0.8,3.6,0.6,2.7,0.2l0.2,0.4
					c-0.4-0.1-1.3-0.7-1.3-1.2c-0.2,0.2-0.7-0.1-1-0.3l-0.1-0.1c-0.4-0.2-0.8-0.7-0.9-0.2c1.9,1.8-3.5,0.9-1.8,2.9
					c-0.3-1.2,0.8-0.2,1.6,0.5c-0.1,0.2,0,0.8,0.5,1.5c0.5,0.5,0.5,0.1,0.7,0.1c0.2,0.4,0.6,1,0.3,1.2c0.7,0.1,0.5,0.8,1,1.1
					c0.6,0.3,0.1-0.2,0.5,0c0.6,0.6,1.4,1.5,1.9,2c0,0.4,0.2,1.4-0.6,1.4c-1-0.9,0.9-0.3-0.2-1.1c-0.1,1-1.1-0.7-1.6-0.4
					c0.1,0.6,0.7,1.2,1.4,1.6l0-0.2c0.6,0.4,1.7,1.1,1.9,1.9c-0.3,0.1-0.2,0.4-0.6,0.2l0.7,0.6c0.1,0,0.3,0,0.1-0.2
					c0.5,0.1,0.7,0.5,0.9,0.8c-0.1,0.3,4.5,2.2,4.3,2.2c0.5,0.4,0.4,0.8,1.1,1c0.2-0.1-5.5-3.2-4.8-2.7c0.1,0.3,1.8,1.2,3.4,2.1
					c1.7,0.9,3.3,1.8,3.3,2.1c0.4,0.3,0.9,0.6,1,0.3c0.6,0.6-0.5,0.3-0.2,0.9c0,0,0-0.1,0.2,0l0.2,0.6c1.3,0.4,2.5,2,3.9,2.3
					c-0.5,0-1.2,0.2-2-0.1l0-0.2c-0.2,0-0.8-0.3-0.9-0.1c0.6,0.6,1.2,1,2,1.3c0.1,0.2,0.2,0.3,0.3,0.5c0,0,0-0.1,0.1-0.1
					c0.1,0.3,0.1,0.3-0.1,0.3c0,0,0,0-0.1,0c0,1,2.9,1.4,4,2.6c0.4,0.1,0.1-0.1,0.7,0.1c1.1,1.1,1.8,1.9,3.1,3
					c0.6,0,0.7-0.1,0.4-0.8l1,0.8c-1.4,0.2,1.4,2-0.1,2.2c0.2,0.4,0.8,0.8,1.4,1c0.2-0.2,0.5-0.4,1.2,0c0.8,0.9,0.7,0.7,1.3,1.4
					c0,0.4-0.3,0.3-0.4,0.5c1.5,0.5,0.8,1.3,2,2c0.8,0.4,2.4,1.3,2.7,0.8C98.3,399.2,98.1,399.5,97.7,399.8z"/>
			</g>
		</g>
	</g>
	<g>
		<g>
			<g>
				<path d="M268.4,464.5l0.1-0.5c-0.1,1.6-0.4,3.2-0.7,4.8c2.1-3.4,4.1-7.4,0.2-10.4c2.1-0.2,3.3-3.5,2.8-3.6
					c-0.3-0.7-0.6-1.5-0.9-2.2c0.1,0.5,0.3,1,0.5,1.5c-0.2-0.5-0.3-1-0.5-1.5c-1.4-4.7-0.6-9.6,0.4-14.7c0.5-2.8,1-10.6,1.6-13.6
					c0.1-0.4,0.1-0.9,0.2-1.3c-0.2,0.7-0.2,0.7-0.4,1.4c-0.6-1.8-1.2-3.4-1.5-5c-0.3,0.3-0.6,0.3-1,1l0.2-0.8
					c-0.9-0.7-0.9-2.4-1.3-3.2c0.5,0.2,0.5-0.5,0.6-1l-0.3,0.2c0.1-2.1-0.3-4.5-0.3-6.3c0-0.3,0.2-0.5,0.3-0.6l-0.4-1.8
					c0.6,0.1,0.5-1.5,0.9-0.7c-0.8-1.3-0.4-2.7-1.2-3.9c-0.3-4.5-1.1-9.3-2.4-13.9l-0.2,0.1c-0.5-1.6-1.9-2.9-1.6-5
					c-0.9-1.3-1.5-3.3-2.9-3.8c-0.3-1.6-1-2.2-1.5-3.7c-0.6,0.5-0.9-1.5-1.3-0.6c-0.8,1.1,0,1.1-0.7,2.1l0.2,0
					c-0.6,4.2-0.8,8.4-0.8,12.7c0.7,2.8,0.5,5.8,0.8,8.8c0.4,3.1,1,6.5,1.6,9.2c0.2,0.6-0.3,1.1-0.6,1.7c0.4,2.5,0.2,5.6,0.6,8.4
					c0-0.1,0-0.1,0-0.1c0.1,1.5-0.5,2.6-0.4,4.1c0.2,0,0.2,0.2,0.3,0.3c-0.8,0.3,1.8,8.6,1.3,9.1c0,0.2,0.1,0.3,0.1,0.5
					c-0.4,3.1-2.1,6.2-2,8.9c0.4,0.6,0.7,1.2,1.1,1.7c-0.4,0.5,0.3,0.6,0.2,1.1c-1.7,1.4-1.1,2.2-0.4,1.5c0.2,1.2,0,2.4,0,3.4
					c0.1,0.5,0.2,1,0.3,1.5c0.1,0.4-0.1,0.6-0.5,0.8c0.2,1.1-0.2,0.7-0.4,1.8c-0.6,0.2,0.8,2.8,0.6,3.1l-0.1-0.2
					c-0.2,1.3-1.4,2.1-1.5,3.3c-0.6,3.5-0.5,7.3-0.9,10.5c0.6,0.1-0.1-0.7,0.7-0.7c-0.3,1.9-1.2,3.7-1.4,5.7
					c-0.2,0.3-0.5,0.7-0.8,0.9c-0.3,0.6,0.3,0.4,0.1,0.8l-0.6,0c0.4,0.7-0.7,0.9-0.5,1.5c0.2,0.1,0.2,0.3,0.2,0.5
					c-0.6,0,0,0.7-0.6,0.6l0,0c0,0.1,0,0.2-0.1,0.4c0.2,0.3,1.6,2.8,1.8,3.1l-0.1,0.1c0,0.4,0.4,0.5,0.5,0.4l-0.1,0.4l0-0.1
					l-0.1,0.4c-0.1,0.1-0.3,0.1-0.6,0c0.2,0.3,0.3,0.6,0.1,0.8c0.4-0.6,1-1.4,1.7-2.1c0.2,0.3-0.2,0.8-0.2,1.1
					c-0.4,0.3-0.8,1.1-1.2,1.7c0,0.1,0.7,0.3,0.3,0.6c-0.5,0.1,0,0.3-0.4,0.6c-0.2-0.3-0.1-0.6,0-0.9c-0.5,0-0.4,0.7-0.6,0.9
					c0.2,0.1-0.1,0.7,0,1c-0.5-0.2-0.4,0.2-0.7,0.4c-0.1,0.2,0.1,0.4,0.3,0.3c0.6,0.1,0.4-0.9,1-0.5c-0.3,0.1-0.2,0.5-0.2,0.8
					c0.3,0,0.3-0.1,0.5,0.1c-0.1,0.3,0.2,0.6-0.1,0.7c-0.1-0.1,0-0.2,0-0.3c-0.1,0.4-1.8-2.2-1.7-1.7c0.3-0.1,1.6,2.3,1.6,2
					c0.2-0.2,0.5,0.2,0.7,0l-0.3-0.3c0.1-0.3,0.7-0.4,0.9-0.2c-0.1,0.5-1.9-1.7-1.7-1.2l0.2-0.2c0.2,0.2,0.3,0.7,0,0.9
					c0.3,0,0.4,0.3,0.5,0.5l-0.1,0.1c0.1,0.2,0,0.5,0.4,0.4c0.1-1.3,3,1.2,3.3,0c-0.7,0.5-0.7-0.3-0.7-0.8c0.2,0,0.6-0.2,0.8-0.6
					c0-0.4-0.2-0.2-0.4-0.3c0.2-0.2,0.3-0.5,0.7-0.4c-0.4-0.3,0.3-0.4,0.2-0.7c-0.2-0.3-0.2,0-0.4-0.2c0.1-0.4,0.2-1,0.3-1.3
					c0.3-0.1,1-0.4,1.5-0.1c-0.1,0.6-0.8-0.3-0.8,0.4c0.8-0.2,0.1,0.6,0.7,0.8c0.4-0.2,0.4-0.6,0.4-1l-0.1,0.1
					c-0.1-0.3-0.2-1,0.3-1.3c0.3,0.1,0.5,0,0.5,0.2l0.1-0.4c-0.1-0.1-0.2-0.1-0.2,0c-0.2-0.2,0-0.4,0.1-0.6c0.3,0-1-2.5-0.8-2.4
					c0-0.3,0.5-0.4,0.2-0.7c-0.2-0.1,0.7,3.1,0.6,2.7c0.3-0.2-1.1-3.8-0.5-3.9c0-0.2,0-0.5-0.3-0.5c0.2-0.4,0.5,0.2,0.8-0.1
					c0,0-0.1,0-0.1-0.1l0.4-0.2c-0.4-0.7,0.3-1.5-0.2-2.2c0.3,0.2,0.8,0.5,1.1,0.9l-0.2,0.1c0.1,0.1,0.1,0.4,0.4,0.4
					c0.2-0.4,0.2-0.7,0-1.2c0.1-0.1,0.2-0.2,0.3-0.2c0,0-0.1,0-0.1,0c0.2-0.1,0.2-0.1,0.3,0c0,0,0,0,0.1,0c0.9-0.2-0.4-1.6,0.1-2.3
					c-0.1-0.2-0.1,0-0.3-0.3c0.4-0.7,0.7-1.2,0.9-2c-0.3-0.3-0.5-0.3-0.9,0l0.2-0.6c0.9,0.6,1-1,1.9-0.4c0.2-0.2,0.3-0.5,0.2-0.8
					c-0.2-0.1-0.6-0.1-0.6-0.5c0.4-0.6,0.2-0.4,0.6-0.9c0.3-0.1,0.4,0.1,0.7,0.1c-0.4-0.8,0.7-0.6,0.7-1.3c-0.1-0.4,0-1.3-0.6-1.4
					C267.5,464.4,267.9,464.4,268.4,464.5z"/>
			</g>
		</g>
	</g>
	<g>
		<g>
			<g>
				<path d="M309.3,463.4l1-0.3c-3,1.3-6.3,2.3-9.4,3.3c3.7-0.4,7.7-1,11.3-2.3c3.6-1.3,6.8-3.4,8.6-6.5c0.7,0.8,2.9,0.6,4.9,0
					c2-0.6,3.7-1.5,3.7-1.8c1.2-1.2,2.3-2.3,3.5-3.5c-0.8,0.8-1.6,1.5-2.4,2.3c0.8-0.8,1.6-1.5,2.4-2.3c3.6-3.6,7.3-7,11.2-10.2
					c3.9-3.1,8-6,12.3-8.2c0.6-0.3,1.3-0.7,2.1-1.1c0.4-0.2,0.8-0.4,1.3-0.6c0.4-0.2,0.9-0.4,1.4-0.6c1-0.5,2-0.7,3.1-1.2
					c1.3-0.5,2.6-0.9,3.9-1.4c5.3-1.9,10.5-3.9,13.5-5c0.8-0.3,1.7-0.6,2.5-1c-1.4,0.5-1.4,0.5-2.9,0.9c3.1-2.1,6-4,8.7-5.9
					c-0.7,0-0.9-0.2-2.3,0l1.6-0.6c1-1.5,4.1-3,5.4-4.2c-0.1,0.6,1.1,0,2.1-0.4l-0.5-0.1c1-0.5,2-1,3-1.6c1-0.6,2-1.2,3-1.8
					c2-1.2,3.8-2.4,5.5-3.4c0.5-0.3,0.9-0.3,1.2-0.3c1-0.7,2-1.5,3-2.3c0.1,0.7,2.9-1.2,1.6,0.1c2-2.1,4.6-3.3,6.4-5.4
					c7.8-5.4,15.6-11.8,22.4-18.8l-0.3,0c1.2-1.3,2.1-2.6,3.2-3.9c1.1-1.3,2.3-2.7,3.9-3.9c0.8-1.3,1.9-2.7,2.9-4
					c1-1.3,1.9-2.4,2-3.3c1.5-1,2.6-1.8,3.8-2.4c1.2-0.6,2.7-1.2,4.9-1.1c-0.3-0.2-0.1-0.3,0.2-0.4c0.3-0.1,0.9-0.1,1.4,0
					c0.3,0,0.5,0.1,0.7,0.1c0.2,0,0.3,0,0.4,0c0.2,0,0.1-0.2-0.2-0.4c-1.4-0.9-2.4-1.1-3.2-1.1c-0.8,0-1.6,0-3-0.2l0.1,0.2
					c-1.6,0.1-3.1,0.6-4.4,1.1c-1.3,0.5-2.6,1.1-3.7,1.8c-1.1,0.7-2.2,1.4-3.2,2.1c-1,0.7-1.9,1.5-2.8,2.1
					c-3.4,2.7-6.8,5.3-10.2,7.9c-4.1,4.1-9.4,7.5-14.1,11.2c-5.2,3.9-10.7,8.2-15.2,11.5c-1,0.8-2.1,0.9-3.3,1.2
					c-4.2,2.9-10,5.9-15,8.9c0.1,0,0.2-0.1,0.3-0.1c-2.7,1.5-5,2-7.7,3.4c0.1,0.2-0.3,0.4-0.5,0.6c-0.2-0.1-1.2,0.4-2.7,1.2
					c-1.5,0.8-3.4,2-5.4,3.1c-2,1.1-3.9,2.2-5.5,3.1c-1.6,0.8-2.7,1.4-3,1.3c-0.3,0.2-0.6,0.3-0.9,0.5c-1.6,0.5-3.3,1-4.9,1.6
					c-0.8,0.3-1.7,0.6-2.5,0.9c-0.8,0.3-1.6,0.7-2.4,1c-3.2,1.4-6.1,3-8.3,4.8c-0.8,1.1-1.7,2.2-2.2,3.2c-1,0.3-0.7,1-1.7,1.7
					c-3.4,0.6-4.3,2.3-2.7,1.8c-1.8,1.8-3.7,3.2-5.3,4.6c-0.7,0.7-1.4,1.4-2.1,2.1c-0.6,0.6-1.1,0.7-1.7,0.6
					c-1.6,1.4-1.3,0.7-3.2,1.8c-0.4-0.1-1.3,0.9-2.4,1.8c-1,0.9-2.1,1.9-2.4,2l0.3-0.3c-1.1,0.6-2.2,0.8-3.3,1
					c-0.5,0.1-1.1,0.2-1.6,0.4c-0.6,0.1-1.1,0.3-1.7,0.5c-6.5,2.5-13.7,5.6-20.2,8c0.2,0.6,1.4-0.7,1.7,0.1
					c-3.8,1.4-7.9,2.2-11.8,3.9c-0.8,0.2-1.8,0.3-2.2,0.3c-1.3,0.4-0.6,0.6-1.5,1l-0.4-0.4c-1.1,1.1-2.2,0.5-3.4,1.4
					c0,0.2-0.4,0.5-0.8,0.8c-0.3-0.5-1.3,0.9-1.6,0.4l0,0c-0.3,0.2-0.4,0.3-0.8,0.4c-0.1,0.1-0.4,0.5-0.8,1
					c-0.4,0.5-0.9,1.2-1.4,1.8c-1,1.3-1.9,2.5-2.1,2.9l-0.3,0.1c-0.6,0.6-0.6,1.1-0.2,0.9l-0.8,0.6l0.1-0.1l-0.8,0.6
					c-0.2,0.1-0.5,0-0.5-0.4c-0.3,0.5-0.7,1-1.2,1.4c1.4-0.9,3.3-1.7,4.9-2.3c-0.4,0.6-1.5,1.1-2,1.7c-0.5,0.1-1.1,0.4-1.8,0.8
					c-0.6,0.4-1.3,0.9-1.9,1.3c-0.2,0.3,0.1,0.9-0.6,1.2c-0.6-0.1-0.5,0.6-1.2,0.8c0.3-0.7,0.8-1.1,1.3-1.6c-0.5-0.3-1.5,1-1.9,1.3
					c0,0.3-1,1.3-1.4,2c-0.2-0.6-0.7,0.3-1.2,0.6c-0.4,0.4-0.5,0.8-0.2,0.8c0.3,0.5,1.7-1.6,1.7-0.6c-0.3,0-1,0.9-1.3,1.4
					c0.2,0.2,0.4-0.2,0.4,0.3l-0.1,0.1l0,0l-0.1,0.2l-0.2,0.3c-0.1,0.2-0.2,0.4-0.3,0.6l-0.1,0.1l-0.1,0.2c-0.1,0.2-0.1,0.4-0.2,0.7
					c-0.1,0.5-0.1,0.9,0,1.4c0.1,0.7,0.3,1.4,0.7,2c0.1,0.2,0.2,0.3,0.3,0.4c0.1,0.1,0.2,0.2,0.3,0.3c0.2,0.2,0.4,0.4,0.6,0.6
					c0.2,0.2,0.4,0.3,0.7,0.5c0.1,0.1,0.2,0.1,0.3,0.1l0.2,0.1c0.3,0.1,0.5,0.2,0.8,0.3c0.2,0,0.2,0,0.3,0.1l0.2,0
					c0.2,0,0.3,0,0.5,0l0.4,0c0.2,0,0.5,0,0.6-0.1c0.8-0.2,1.2-0.3,2.3-0.9c0.2-0.1,0.6-0.4,0.9-0.7l0.2-0.2c0-0.1,0.2-0.2,0.3-0.4
					c0.2-0.3,0.4-0.7,0.5-1c0.3-0.6,0.4-1.7,0.3-2.5c0-0.2-0.1-0.4-0.1-0.6c-0.1-0.2-0.1-0.3-0.1-0.4c-0.1-0.3-0.2-0.5-0.3-0.7
					c0.2,0.3,0.4,0.6,0.5,1c0.2,0.6,0.3,1.4,0.2,2.2c-0.1,0.4-0.1,0.7-0.2,1c-0.1,0.3-0.3,0.6-0.4,0.9c-0.1,0.1-0.2,0.3-0.3,0.4
					c-0.1,0.1-0.1,0.2-0.2,0.3c-0.1,0.1-0.3,0.3-0.4,0.4c-0.1,0.1-0.3,0.3-0.5,0.4l-0.3,0.2c-0.2,0.1-0.4,0.2-0.6,0.3
					c-0.3,0.1-0.6,0.2-0.8,0.3c0.5-0.2,0.6-0.2,0.3,0c-0.2,0.1-0.4,0.2-0.7,0.3c-0.2,0.1-0.4,0.1-0.6,0.2c-0.2,0-0.5,0.1-0.8,0.1
					c-0.2,0-0.4,0-0.7,0l-0.4,0c-0.2,0-0.4-0.1-0.6-0.1c-0.5-0.1-2.3-0.8-3.2-2.7c-0.3-0.5-0.4-1.1-0.5-1.6c0-0.3,0-0.4-0.1-0.6
					c0-0.2,0-0.4,0-0.5c0-0.7,0.3-1.6,0.4-1.8c0.1-0.3,0.3-0.6,0.4-0.9c0.1-0.2,0.1-0.1,0.1-0.2l0-0.1c0.1-0.3,0.1-0.6,0.2-0.9
					c0.3-1.2,0.7-2.4,0.4-1.9c0.2,0-0.2,1.3-0.6,2.5l-0.1,0.2l0,0.1l0,0c0,0,0,0-0.1,0.1c-0.2,0.3-0.4,0.7-0.5,1.1l-0.1,0.4
					c-0.1,0.2-0.1,0.4-0.2,0.6c-0.1,0.4-0.1,0.9-0.1,1.3l0,0.3c0,0.2,0,0.3,0.1,0.5c0.1,0.3,0.2,0.7,0.3,1c0.2,0.6,0.7,1.3,1,1.6
					c0.4,0.4,0.8,0.7,1.2,1c0.1,0.1,0.2,0.1,0.3,0.2l0.2,0.1c0.1,0.1,0.3,0.1,0.4,0.2c0.3,0.1,0.5,0.2,0.8,0.2
					c0.3,0.1,0.3,0.1,0.5,0.1c1.3,0.1,1.8-0.1,2.4-0.3c0.3-0.1,0.6-0.2,0.9-0.4c0.1-0.1,0.4-0.2,0.6-0.3c0.2-0.2,0.3-0.2,0.7-0.5
					c0.3-0.3,0.5-0.5,0.8-0.8c0.4-0.5,0.7-1.1,0.9-1.7c0-0.2,0.1-0.3,0.1-0.4c0-0.2,0.1-0.4,0.1-0.6c0-0.4,0-0.8,0-1.1
					c0-0.4-0.1-0.7-0.2-1c-0.1-0.2-0.2-0.4-0.3-0.6c-0.4-0.7-1.1-1.4-1.2-1.5c-0.2-0.2-0.4-0.3-0.6-0.5c-0.1-0.1-0.2-0.1-0.3-0.1
					c-0.1,0,0,0-0.1,0c0,0,0,0,0,0c0,0,0,0,0,0c0.5,0.4,0.8,0.7,1,0.9c0.1,0.1,0.3,0.3,0.3,0.4c0.1,0.1,0.1,0.2,0.1,0.2
					c0,0-0.2-0.2-0.5-0.4c-0.1-0.1-0.3-0.2-0.5-0.3c-0.2-0.1-0.4-0.2-0.5-0.3c-0.2-0.1-0.1,0-0.2,0c0,0-0.1,0,0.2,0.2
					c0.1,0.1,0.2,0.2,0.4,0.3c0.1,0.1,0.2,0.1,0.2,0.2c0,0,0.1,0.1,0.1,0.2c0.1,0.1,0.2,0.2,0.3,0.4c0.3,0.4,0.5,0.8,0.7,1.3
					c0.2,0.7,0.3,1.6,0.2,2.3c-0.1,0.6-0.4,1.2-0.7,1.7l-0.2,0.3l-0.2,0.2c-0.1,0.1-0.2,0.2-0.3,0.4c-0.1,0.1-0.3,0.2-0.3,0.3
					l-0.2,0.2c-0.1,0.1-0.3,0.2-0.5,0.3c-0.2,0.1-0.5,0.3-0.7,0.4c-0.9,0.2-1.5,0.3-2.7,0c-0.4-0.1-0.8-0.3-1.1-0.5
					c-0.6-0.3-1.1-0.8-1.4-1.3c-0.4-0.6-0.7-1.3-0.8-1.9c0-0.1,0-0.3,0-0.4l0-0.3c0-0.2,0-0.4,0.1-0.5c0.1-0.3,0.1-0.6,0.2-0.8
					l0.1-0.2c0,0,0,0,0-0.1l0.1-0.1c0.1-0.1,0.2-0.2,0.2-0.2c0,0,0.1,0.1,0,0.2l0,0.2c0,0.1-0.1,0.4-0.1,0.7
					c-0.1,0.3-0.1,0.6-0.1,0.9c0,0.3,0.1,0.8,0.2,1.1c0.1,0.4,0.3,0.6,0.5,0.9c0.1,0.2,0.3,0.3,0.4,0.5c0.5,0.5,0.8,0.6,0.6,0.6
					c-0.1,0-0.6-0.2-1.1-0.8c-0.3-0.3-0.7-0.9-0.8-1.7c0-0.2-0.1-0.4-0.1-0.5c0-0.1,0-0.2,0-0.4c0-0.3,0-0.6,0.1-0.8
					c0-0.1,0.1-0.3,0.1-0.4l0.1-0.2c0-0.1,0.1-0.3,0.2-0.4c0.1-0.1,0.1-0.3,0.2-0.4c0-0.1,0-0.1,0-0.1c0-0.1,0-0.2,0-0.3
					c0-0.2,0.1-0.5,0.1-0.7c0.2-1,0.4-2,0.2-1.5l0.4-0.3c-0.1,0.5-0.7,1.5-1.3,1.7c0.1,0.1,0.1,0.3,0,0.5c0,0.1,0,0.1-0.1,0.2
					c0.1-0.1-0.4,0.6-0.6,1.2c0,0.1-0.2,0.5-0.2,0.8c-0.1,0.3-0.1,0.7-0.1,1.1c0,0.3,0.1,0.9,0.2,1.4c0.2,0.5,0.5,1.1,0.8,1.5
					c0.3,0.3,0.6,0.6,0.9,0.9c0.3,0.3,0.8,0.5,0.9,0.6c0.2,0.1,0.4,0.2,0.6,0.2c0.2,0.1,0.5,0.1,0.6,0.1c0.2,0.1,0.5,0.1,0.7,0.1
					c0.2,0,0.4,0,0.5,0c0.8-0.1,1.3-0.2,2-0.6c0.1-0.1,0.5-0.2,0.7-0.4l0.2-0.1l0.2-0.2c0.2-0.1,0.3-0.3,0.5-0.5l0.2-0.2
					c0.1-0.1,0.1-0.1,0.2-0.3c0.2-0.3,0.4-0.7,0.5-1c0.1-0.2,0.1-0.3,0.2-0.5c0-0.2,0.1-0.4,0.1-0.6c0.1-0.4,0.1-0.9,0-1.3
					c0-0.2-0.1-0.4-0.1-0.6l-0.1-0.3l-0.1-0.2c-0.1-0.2-0.2-0.4-0.3-0.6c-0.2-0.4-0.5-0.8-0.7-0.9c-0.2-0.2-0.5-0.4-0.6-0.4
					c-0.3-0.1-0.1,0,0.4,0.6c0.2,0.2,0.6,0.7,0.8,1.1c0.1,0.2,0.2,0.4,0.3,0.6c0.1,0.3,0.2,0.6,0.2,1c0.1,1.5-0.3,2.3-0.9,3.1
					c-0.2,0.3-0.3,0.4-0.5,0.6c-0.1,0.1-0.2,0.2-0.3,0.2l-0.1,0.1l-0.1,0.1c-0.2,0.1-0.5,0.3-0.7,0.4c-0.7,0.3-1.1,0.3-1.4,0.4
					c-0.7,0-1.1-0.2-1.1-0.3c0-0.1,0.1-0.1,0.3-0.2c0.1-0.1,0.3-0.2,0.5-0.3c0.3-0.2,0.7-0.5,1.1-0.9l0.3-0.3l0.1-0.2
					c0.1-0.1,0.2-0.2,0.2-0.3c0.1-0.1,0.1-0.2,0.2-0.3c0-0.1,0.2-0.3,0.2-0.5c0.1-0.4,0.2-0.7,0.1-1.1c-0.1-0.9-0.5-1.1-0.7-1.2
					c-0.3-0.2-0.3-0.1-0.4-0.1c0,0-0.1,0.1-0.1,0.1c0,0,0,0.1,0.1,0.2c0,0.1,0.1,0.2,0.1,0.4c0,0.1,0.1,0.5,0,0.9
					c-0.2,0.6-0.7,0.8-0.9,0.9c-0.3,0.1-0.5,0.1-0.8,0.1c0.6,0.1,0.9,0.1,0.9,0.2c0,0.1-0.2,0.3-0.7,0.4c-0.1,0-0.2,0-0.5,0
					c-0.2,0-0.5,0-1-0.3c-0.1-0.1-0.3-0.2-0.4-0.4c-0.1-0.1-0.2-0.4-0.3-0.6c0-0.1-0.1-0.2-0.1-0.3c0-0.1,0-0.2,0-0.2
					c0-0.2,0-0.3,0.1-0.5c0-0.2,0.1-0.2,0.1-0.3c0-0.1,0.1-0.1,0.1-0.2c0.1-0.2,0.1-0.2,0.1-0.2c0.2-0.2,0.3-0.5,0.5-0.8
					c0.3,0,0.9-0.2,1.5-0.8c0.4-0.6,0.1-0.5,0-0.7c0.4-0.2,1-0.8,1.2-0.5c0-0.7,0.8-0.5,1.2-1.1c0.3-0.6-0.2-0.1,0-0.5
					c0.7-0.6,1.6-1.5,2.2-2c0.4,0.1,1.5,0,1.4,0.7c-1.1,0.8-0.2-1-1.1,0.1c0.9,0.1-0.7,1-0.5,1.6c0.6-0.1,1.2-0.7,1.6-1.3l-0.2,0
					c0.4-0.5,1.3-1.5,2.1-1.6c0,0.3,0.4,0.3,0.1,0.6l0.7-0.5c0-0.1,0.1-0.3-0.2-0.2c0.2-0.4,0.6-0.6,0.9-0.7
					c0.1,0.1,0.9-0.8,1.7-1.8c0.4-0.5,0.8-0.9,1.1-1.3c0.3-0.3,0.5-0.5,0.5-0.5c0.6-0.4,0.9-0.1,1.3-0.7c0-0.1-0.3,0.2-0.8,0.5
					c-0.5,0.4-1,0.9-1.5,1.4c-1,1.1-2,2.1-1.7,1.8c0.3,0,1.6-1.4,3-2.7c1.4-1.2,2.8-2.4,3.1-2.3c0.4-0.2,0.9-0.6,0.7-0.8
					c0.8-0.3,0,0.6,0.7,0.6c0,0-0.1-0.1,0.1-0.2l0.7,0.1c0.5-0.5,1.2-0.8,1.9-1.2c0.7-0.3,1.5-0.7,1.9-1.2c-0.2,0.4-0.4,1.1-1,1.7
					l-0.2-0.1c-0.1,0.1-0.7,0.5-0.5,0.8c0.8-0.2,1.4-0.5,2.1-1.1c0.2,0,0.4,0,0.5,0c0,0,0-0.1-0.1-0.1c0.3,0,0.3,0.1,0.3,0.2
					c0,0,0,0.1,0,0.1c0.4,0.3,1.1-0.2,1.8-0.7c0.8-0.5,1.6-1.2,2.4-1.2c0.4-0.3,0-0.1,0.4-0.5c1.5-0.3,2.6-0.4,4.2-0.9
					c0.3-0.5,0.3-0.7-0.4-0.8l1.2-0.3c-0.7,1.3,2.4,0,1.7,1.4c0.4,0.1,1.1-0.1,1.7-0.5c0-0.3-0.1-0.7,0.7-1c1.2-0.1,0.9-0.1,2-0.2
					c0.3,0.2,0,0.5,0.2,0.7c1.3-0.9,1.5,0.2,2.8-0.4c0.8-0.4,2.5-1.1,2.3-1.6C309.1,462.5,309.3,462.9,309.3,463.4z"/>
			</g>
		</g>
	</g>
	<g>
		<g>
			<g>
				<path d="M234.7,230.4l-0.6,0.7c1.6-2.4,3.7-4.6,6-6.6c-3,1.6-6,4-8,6.8c-2,2.8-3,5.9-2.2,8.9c-1.1-0.2-2.5,0.9-3.5,2.2
					c-1,1.3-1.7,2.7-1.5,2.9c-0.1,1.3-0.2,2.6-0.4,3.9c0.2-0.9,0.3-1.8,0.4-2.6c-0.1,0.9-0.2,1.8-0.4,2.6c-0.5,4.1-1.4,8.2-2.3,12.4
					c-0.9,4.3-1.7,8.7-2.1,13.4c-0.2,2.6-0.3,7.6,1.3,13.2c0.8,2.7,2.2,5.5,3.8,7.8c1.6,2.3,3.3,3.8,4.4,4.9c0.7,0.6,1.3,1.2,2,1.7
					c-1.1-1-1.1-1-2.2-2c3.3,1.9,6.3,2.8,8.8,3.8c-0.3-0.5-0.2-0.8-1-1.7l1.1,0.8c1.5-0.2,4.1,1.1,5.5,1.4c-0.5,0.3,0.5,0.8,1.4,1.3
					l-0.2-0.4c3.3,1.7,7.6,2.7,11.1,3.2c0.5,0.1,0.8,0.3,1.1,0.5c0.6,0,1.2,0,1.7,0c0.6,0,1.2-0.1,1.7-0.2c-0.1,0.3,0.6,0.4,1.2,0.5
					c0.6,0.1,1,0.1,0.1,0.4c1.3-0.5,2.7-0.7,4-1.1c0.6-0.2,1.3-0.4,1.9-0.7c0.6-0.3,1.2-0.6,1.7-1c4.1-1.8,7.7-4.7,10.4-7.9
					c2.8-3.3,4.8-6.9,6.5-10.6l-0.3,0c1.1-2.6,1.3-5.3,3.2-8c0.4-2.5,1.7-5.6,1-7c1.2-2.5,1.1-3.7,2.2-6.2c-0.9,0.3,0.6-2.6-0.5-1.7
					c-1.6,1.1-1,1.6-2.4,2.5l0.2,0.1c-2.1,2.8-4.2,5.7-6.2,8.6c-2,3-3.8,5.8-5.7,8.5c-1.9,4-5.1,7.4-8,9.8
					c-3.1,2.8-6.8,4.4-10.5,4.7c-0.4,0.1-0.8,0-1.1-0.2c-0.3-0.2-0.7-0.4-1-0.6c-1.7-0.1-3.6-0.6-5.7-1.3c-2-0.7-4.2-1.6-6.2-2.5
					c0.1,0,0.1,0.1,0.2,0.1c-2.2-1-3.5-2.4-5.4-3.4c-0.1,0.2-0.4,0-0.6,0c0.1-0.5-2.8-1.7-4.8-3.4c-2.1-1.6-3.6-4.5-3.4-5
					c-0.1-0.2-0.2-0.4-0.3-0.6c-0.8-4.4,1-9.4,1.1-13.3c-0.3-0.9-0.6-1.9-0.9-2.7c0.5-0.7-0.2-0.9,0-1.8c2-1.9,1.6-3.3,0.8-2.3
					c0.1-1.9,0.7-3.6,1.1-5.3c0.1-0.8,0.2-1.5,0.3-2.3c0.1-0.7,0.4-1,0.9-1.1c0.3-1.7,0.5-1.1,1.3-2.7c0.7-0.2,0.7-4.5,1.1-4.9
					l0,0.3c0.9-1.8,2.5-2.6,3.4-4.2c1.4-2.3,2.9-4.6,4.4-6.7c1.6-2.1,3.3-4,5.1-5.3c-0.4-0.5-0.7,0.8-1.2,0.2
					c2.1-1.7,4.8-2.6,7.2-3.5c0.5,0,1.1,0,1.4,0.1c0.8-0.1,0.3-0.4,0.9-0.6l0.3,0.5c0.7-0.7,1.3,0.2,2-0.1c0-0.2,0.2-0.3,0.5-0.3
					c0.1,0.6,0.8-0.2,0.8,0.4l0,0c0.2,0,0.3-0.1,0.4,0c0.1-0.1,0.8-0.7,1.6-1.1c0.8-0.5,1.5-0.9,1.7-1l0.1,0.1
					c0.4,0,0.6-0.4,0.4-0.5c0.2,0,0.3,0.1,0.5,0.1l-0.1,0c0.2,0,0.3,0.1,0.5,0.1c0.1,0.1,0.1,0.4-0.1,0.6c0.3-0.1,0.6-0.2,0.8,0
					c-0.6-0.6-1.4-1.3-2.3-2c0.4-0.2,1,0.2,1.4,0.2c0.4,0.5,1.2,1,1.7,1.5c0.1,0,0.5-0.6,0.7-0.2c-0.1,0.5,0.3,0.1,0.4,0.5
					c-0.3,0.1-0.5-0.1-0.8-0.3c-0.2,0.5,0.4,0.6,0.5,0.9c0.2-0.1,0.4,0.3,0.7,0.3c-0.4,0.3-0.1,0.4-0.2,0.6c0,0.1,0.2,0,0.3-0.1
					c0.2-0.2,0.2-0.3,0.2-0.5c0-0.2-0.1-0.3,0.2-0.4c-0.1,0.2,0.2,0.4,0.3,0.5c0.2-0.2,0.1-0.3,0.4-0.3c0.1,0.2,0.5,0.2,0.3,0.5
					c-0.1,0-0.1-0.1-0.1-0.1c0.1,0.1-0.6,0.1-1.1,0.2c-0.5,0.1-1,0.3-0.9,0.3c0.1-0.1,0.6-0.3,1.1-0.3c0.5,0,1,0.1,1,0
					c0-0.2,0.6-0.2,0.5-0.4c-0.1,0-0.3,0-0.4,0c0-0.3,0.3-0.7,0.5-0.7c0.1,0.2-0.5,0.2-1.1,0.3c-0.6,0.1-1.1,0.3-0.8,0.2
					c0-0.1,0-0.1,0-0.2c0.2-0.1,0.7,0.1,0.5,0.4c0.2-0.2,0.4-0.1,0.6-0.1c0,0,0,0,0,0.1c0.2,0.1,0.3,0.3,0.6,0
					c-0.3-0.4,0.4-0.8,1.2-1c0.8-0.2,1.7-0.3,1.3-1.2c-0.2,1-0.7,0.2-1.3-0.3c0.1-0.2,0.1-0.7-0.2-1.2c-0.4-0.3-0.4,0-0.6,0.1
					c-0.1-0.3-0.5-0.7-0.3-1c-0.6,0.1-0.4-0.6-1-0.7c-0.5,0-0.1,0.2-0.4,0.2c-0.6-0.3-1.4-0.7-1.9-0.9c-0.1-0.4-0.6-1.1,0-1.5
					c1.1,0.4-0.6,0.7,0.5,0.9c-0.2-0.9,1,0.1,1.4-0.3c-0.2-0.5-1-0.7-1.6-0.8l0.1,0.1c-0.6-0.1-1.7-0.1-2.2-0.6
					c0.2-0.2-0.1-0.5,0.4-0.5l-0.8-0.2c-0.1,0.1-0.2,0.1,0,0.2c-0.4,0.2-0.7,0-1-0.2c0-0.2-1.1,0.1-2.1,0.4c-1,0.4-1.9,0.8-1.8,0.7
					c-0.5,0.1-0.7-0.3-1.2,0c0,0.1,1.2-0.3,2.5-0.6c1.2-0.3,2.4-0.5,2-0.5c-0.2-0.2-1.9,0.2-3.4,0.7c-1.5,0.5-2.9,1.1-3.1,0.9
					c-0.4,0.1-0.8,0.3-0.7,0.5c-0.7,0.1,0.1-0.6-0.5-0.7c0,0,0.1,0.1-0.1,0.2l-0.6-0.2c-0.9,0.7-2.6,0.7-3.4,1.7
					c0.2-0.4,0.3-1.1,0.9-1.6l0.2,0.1c0.1-0.1,0.6-0.4,0.5-0.7c-0.7,0-1.3,0.4-1.9,0.9c-0.2,0-0.3,0-0.5,0c0,0,0,0.1,0.1,0.1
					c-0.3-0.1-0.3-0.1-0.2-0.2c0,0,0-0.1,0-0.1c-0.8-0.6-2.3,1.7-3.6,2c-0.3,0.3,0,0.1-0.3,0.5c-1.3,0.4-2.2,0.8-3.4,1.5
					c-0.1,0.6-0.1,0.7,0.6,0.7c-0.3,0.2-0.6,0.4-0.9,0.6c0.1-1.4-2.1,0.6-1.9-0.8c-0.4,0-0.9,0.5-1.2,1c0.1,0.2,0.3,0.6-0.2,1.1
					c-1,0.5-0.7,0.4-1.5,0.9c-0.4-0.1-0.2-0.4-0.5-0.5c-0.6,1.3-1.3,0.4-2.1,1.5c-0.5,0.7-1.4,2-1,2.3
					C235.4,231,235,230.8,234.7,230.4z"/>
			</g>
		</g>
	</g>
</g>
</svg>
